<?xml version="1.0" standalone="no"?>
<!DOCTYPE svg PUBLIC "-//W3C//DTD SVG 1.1//EN" "http://www.w3.org/Graphics/SVG/1.1/DTD/svg11.dtd" >
<svg xmlns="http://www.w3.org/2000/svg" xmlns:xlink="http://www.w3.org/1999/xlink" version="1.1">
<metadata>
Created by FontForge 20161003 at Thu Dec  1 13:26:35 2016
 By www-data
Copyright (c) Scangraphic Prepress Technology GmbH, 1992 - 2003. Veronika Elsner, Guenther Flake GbR, Hamburg 2004
</metadata>
<defs>
<font id="ScangraphicDigitalTypeCollectionVenusSBOPBoldExtended" horiz-adv-x="0" >
  <font-face 
    font-family="ScangraphicDigitalTypeCollectionVenusSBOPBoldExtended"
    font-weight="400"
    font-stretch="normal"
    units-per-em="1000"
    panose-1="2 0 5 5 5 0 0 2 0 4"
    ascent="800"
    descent="-200"
    x-height="558"
    cap-height="744"
    bbox="-239 -255 1461 950"
    underline-thickness="106"
    underline-position="-215"
    unicode-range="U+0020-2212"
  />
<missing-glyph horiz-adv-x="362" 
 />
    <glyph glyph-name=".notdef" horiz-adv-x="362" 
 />
    <glyph glyph-name=".null" 
 />
    <glyph glyph-name="nonmarkingreturn" horiz-adv-x="333" 
 />
    <glyph glyph-name="space" unicode=" " horiz-adv-x="362" 
 />
    <glyph glyph-name="exclam" unicode="!" horiz-adv-x="307" 
d="M70 747h206l-20 -538h-168zM80 5v158h189v-158h-189z" />
    <glyph glyph-name="quotedbl" unicode="&#x22;" horiz-adv-x="499" 
d="M196 446h-118l-23 298h165zM420 446h-118l-23 298h164z" />
    <glyph glyph-name="numbersign" unicode="#" horiz-adv-x="734" 
d="M671 305l-18 -113h-118l-30 -192h-129l25 159q4 24 9 36q-16 -3 -38 -3h-102l-30 -192h-128l25 159q3 18 9 36q-15 -3 -37 -3h-84l18 113h117l16 102q3 19 10 36q-16 -3 -38 -3h-84l18 113h118l30 191h128l-25 -158q-3 -18 -9 -36q16 3 37 3h102l30 191h130l-25 -158
q-3 -19 -9 -36q15 3 37 3h83l-18 -113h-116l-17 -102q-2 -19 -9 -36q16 3 38 3h84zM424 305l16 102q3 19 9 36q-16 -3 -37 -3h-102l-16 -102q-3 -19 -10 -36q16 3 38 3h102z" />
    <glyph glyph-name="dollar" unicode="$" horiz-adv-x="871" 
d="M382 292l-60 8q-139 18 -207 65q-39 27 -61 67t-22 84t25.5 88t70.5 77q88 65 254 76v103h78v-102q164 -9 264 -81q46 -33 68.5 -65.5t36.5 -86.5l-225 -48q-21 75 -50 101.5t-99 35.5q5 -19 5 -35v-128l82 -11q134 -19 211 -68q38 -24 62 -67t24 -88q0 -74 -54 -132
t-146 -82q-56 -15 -179 -18v-106h-78v107q-121 4 -188 28q-97 35 -154 121q-21 33 -37 85l228 49q14 -67 63 -101q35 -24 93 -32q-5 17 -5 35v121zM460 252v-98q0 -11 -5 -21q77 3 110 17q41 18 41 53q0 23 -21 41q-26 24 -100 34l-12 2q-8 1 -16 5q3 -14 3 -33zM382 501v88
q0 13 5 26q-40 -2 -61 -10q-59 -19 -64 -64q-4 -47 64 -67q15 -5 61 -12q-5 20 -5 39z" />
    <glyph glyph-name="percent" unicode="%" horiz-adv-x="992" 
d="M223 0l441 744h107l-444 -744h-104zM253 752q94 0 156.5 -52t62.5 -131q0 -77 -63.5 -128t-159.5 -51q-95 0 -158.5 51t-63.5 128q0 80 63.5 131.5t162.5 51.5zM255 656q-37 0 -58.5 -21t-21.5 -58q0 -40 21.5 -64t56.5 -24q36 0 57.5 24t21.5 63q0 37 -21 58.5t-56 21.5
zM746 356q94 0 156.5 -52t62.5 -131q0 -77 -63.5 -128t-159.5 -51q-95 0 -158.5 51t-63.5 128q0 80 63.5 131.5t162.5 51.5zM748 260q-37 0 -58.5 -21t-21.5 -58q0 -40 21.5 -64t56.5 -24q36 0 57.5 24t21.5 63q0 37 -21 58.5t-56 21.5z" />
    <glyph glyph-name="ampersand" unicode="&#x26;" horiz-adv-x="925" 
d="M644 0l-58 65q-59 -31 -122 -47q-88 -22 -172 -22q-102 0 -163 35q-45 25 -71.5 69.5t-26.5 96.5q0 106 113 178q48 31 144 63q-33 40 -43 65t-10 64q0 35 19 72.5t48 59.5q63 47 160 47t157 -43q32 -24 51.5 -57.5t19.5 -67.5q0 -60 -45 -110q-35 -38 -107 -70
q23 -21 39 -38l80 -89q39 30 56.5 48.5t43.5 54.5l108 -94q-24 -36 -42.5 -55.5t-67.5 -61.5q10 -5 17 -12l147 -151h-275zM448 217l-89 111q-53 -22 -73 -39q-29 -26 -29 -63q0 -75 108 -75q67 0 123 24q-18 15 -40 42zM461 494q77 36 74 87q-2 43 -54 43
q-23 0 -38.5 -18.5t-14.5 -43.5q2 -26 19 -51q4 -6 8 -11q2 -2 3 -3.5t2 -2.5h1z" />
    <glyph glyph-name="quotesingle" unicode="'" horiz-adv-x="276" 
d="M197 446h-118l-23 298h165z" />
    <glyph glyph-name="parenleft" unicode="(" horiz-adv-x="452" 
d="M442 751v-124q-69 2 -104.5 -12.5t-60.5 -53.5q-26 -43 -32 -113q-1 -10 -1 -30v-62v-214q0 -121 20 -169q30 -74 131 -74q27 0 44 1v-131q-35 -7 -62 -7q-146 0 -244 109q-58 65 -84 171q-17 73 -17 143v159q0 185 92.5 300t240.5 115q37 0 77 -8z" />
    <glyph glyph-name="parenright" unicode=")" horiz-adv-x="450" 
d="M6 -231v124q69 -2 104.5 12.5t60.5 54.5q26 43 32 113q1 10 1 30v61v215q0 121 -20 169q-31 74 -131 74q-28 0 -44 -1v131q35 7 62 7q146 0 244 -109q58 -67 84 -172q17 -71 17 -142v-160q0 -185 -92.5 -299.5t-240.5 -114.5q-34 0 -77 7z" />
    <glyph glyph-name="asterisk" unicode="*" horiz-adv-x="359" 
d="M25 534l41 24q23 14 46 24v2q-24 9 -47 23l-41 25l35 62l42 -24q29 -17 46 -29q-3 24 -3 54v49h72v-48q0 -29 -3 -52q26 17 45 27l42 23l34 -61l-40 -24q-27 -15 -46 -23v-2q27 -11 46 -24l42 -24l-35 -62l-43 23q-26 15 -45 28q3 -23 3 -53v-48h-72v49q0 30 3 53
q-24 -17 -45 -28l-41 -24z" />
    <glyph glyph-name="plus" unicode="+" horiz-adv-x="744" 
d="M59 452h204q15 0 26 -4q-4 11 -4 26v211h175v-211q0 -15 -4 -26q11 4 26 4h204v-160h-204q-15 0 -26 4q4 -11 4 -26v-211h-175v211q0 15 4 26q-11 -4 -26 -4h-204v160z" />
    <glyph glyph-name="comma" unicode="," horiz-adv-x="264" 
d="M43 0v163h186v-149q0 -57 -22 -91.5t-85 -75.5l-59 70q29 27 38 44t10 44q-12 -5 -24 -5h-44z" />
    <glyph glyph-name="hyphen" unicode="-" horiz-adv-x="483" 
d="M24 245l22 140h413l-20 -140h-415z" />
    <glyph glyph-name="period" unicode="." horiz-adv-x="289" 
d="M68 0v163h186v-163h-186z" />
    <glyph glyph-name="slash" unicode="/" horiz-adv-x="493" 
d="M7 0l379 744h103l-378 -744h-104z" />
    <glyph glyph-name="zero" unicode="0" horiz-adv-x="896" 
d="M455 759q193 0 303.5 -105t110.5 -290q0 -175 -108 -277q-106 -102 -310 -102q-194 0 -298 101q-55 54 -86.5 132t-31.5 162q0 180 118 280q63 53 133 76t169 23zM457 622q-91 5 -142.5 -60t-51.5 -184q0 -110 46 -181q51 -77 149 -77q44 0 83.5 22t63.5 60q36 57 36 161
q0 110 -42 178q-46 75 -142 81z" />
    <glyph glyph-name="one" unicode="1" horiz-adv-x="896" 
d="M205 465v129q84 13 130 41q62 39 94 109h145v-744h-201v432q0 46 3 80q-82 -46 -171 -47z" />
    <glyph glyph-name="two" unicode="2" horiz-adv-x="896" 
d="M864 0h-832q-3 70 23 126q42 95 139 156q53 33 175 79q15 6 111 44q75 30 105 59t30 70q0 43 -44 70t-114 27q-67 0 -102 -13t-55 -46q-19 -29 -20 -86l-219 -78q-6 32 -6 72q0 88 37.5 144.5t120.5 91.5q102 43 274 43q150 0 246 -47q51 -26 83 -77.5t32 -108.5
q0 -92 -62 -144q-26 -22 -58 -37t-96 -35q-151 -49 -228 -84q-59 -26 -93 -59q58 4 136 4h417v-171z" />
    <glyph glyph-name="three" unicode="3" horiz-adv-x="896" 
d="M32 272l212 -41q3 -66 41 -91t134 -25q73 0 119 13q40 12 63 39t23 62q0 42 -41 65q-32 18 -104 18h-194v150h218q48 0 75.5 21t27.5 57q0 44 -44.5 67.5t-128.5 23.5q-174 0 -174 -106l-219 -30q-2 71 14.5 113t60.5 75q47 35 130 55.5t176 20.5q195 0 304.5 -57.5
t109.5 -159.5q0 -46 -26 -84t-73 -61v-3q57 -25 87.5 -69t30.5 -100q0 -59 -36.5 -110.5t-101.5 -84.5q-55 -28 -169 -39q-60 -6 -111 -6q-268 0 -357 95q-45 48 -47 153v39z" />
    <glyph glyph-name="four" unicode="4" horiz-adv-x="896" 
d="M48 160v121l404 463h250v-402q0 -15 -4 -26q11 4 26 4h127v-160h-127q-15 0 -26 4q4 -11 4 -26v-138h-199v138q0 15 4 26q-11 -4 -26 -4h-433zM396 320h85q15 0 26 -4q-4 11 -4 26v101q0 74 5 129l-4 2q-40 -53 -88 -108l-53 -61q-35 -40 -82 -86l2 -3q48 4 113 4z" />
    <glyph glyph-name="five" unicode="5" horiz-adv-x="896" 
d="M27 203l222 36q9 -40 26 -62.5t49 -36.5q59 -27 137 -27q50 0 80.5 8.5t55.5 30.5q46 38 46 94q0 57 -49.5 94t-126.5 37q-65 0 -127 -38q-20 -13 -47 -36l-238 36l95 405h668v-165h-524l-16 -63q-8 -29 -21 -65q89 34 149 44q59 11 120 11q125 0 223 -60
q53 -32 82 -84.5t29 -114.5q0 -67 -29.5 -119.5t-83.5 -81.5q-111 -61 -292 -61q-199 0 -311 57t-117 161z" />
    <glyph glyph-name="six" unicode="6" horiz-adv-x="896" 
d="M848 567l-218 -43q-27 59 -59 81t-90 22q-90 0 -146.5 -50.5t-68.5 -141.5l2 -2q109 60 245 60q122 0 207 -39q67 -32 108 -87.5t41 -116.5q0 -57 -32 -111.5t-85 -89.5q-53 -34 -119 -49t-165 -15q-208 0 -320.5 95.5t-112.5 271.5q0 182 125 294.5t328 112.5
q155 0 255 -65q78 -49 105 -127zM464 365q-98 0 -154 -46q-33 -26 -33 -84q0 -53 46.5 -83t131.5 -30q83 0 133.5 32.5t50.5 86.5q0 62 -54 92q-54 32 -121 32z" />
    <glyph glyph-name="seven" unicode="7" horiz-adv-x="896" 
d="M27 579v165h822v-164q-160 -173 -245 -297q-48 -70 -77.5 -127t-70.5 -156h-241q30 127 133 265q56 73 150 167q66 67 161 149l-1 4q-71 -6 -137 -6h-494z" />
    <glyph glyph-name="eight" unicode="8" horiz-adv-x="896" 
d="M169 397v3q-37 21 -56 36q-25 21 -41.5 53.5t-16.5 61.5q0 100 100 154.5t284 54.5q152 0 259 -35q61 -20 101.5 -69.5t40.5 -103.5q0 -55 -45 -102q-20 -20 -70 -51q48 -22 73 -41t41 -47q28 -46 28 -97q0 -107 -112.5 -168t-309.5 -61q-179 0 -304 65q-51 27 -80 71.5
t-29 95.5q0 67 33 110.5t104 69.5zM446 329q-52 0 -79.5 -5.5t-51.5 -21.5q-25 -16 -38.5 -41.5t-10.5 -51.5q6 -44 53 -70t119 -26q60 0 88 5.5t56 22.5q48 31 48 80q0 108 -184 108zM451 635q-82 0 -121 -21.5t-37 -65.5q2 -43 41 -63.5t120 -20.5q69 0 111 24t42 63
q0 40 -40.5 62t-115.5 22z" />
    <glyph glyph-name="nine" unicode="9" horiz-adv-x="896" 
d="M54 176l218 44q29 -63 60.5 -84.5t95.5 -21.5q50 0 97 24t73 63q29 45 37 108l-2 1q-118 -64 -253 -64q-130 0 -229 59q-55 32 -87.5 85.5t-32.5 112.5q0 56 40 114.5t99 88.5q102 53 262 53q162 0 278 -68q157 -93 157 -296q0 -198 -144 -312q-121 -98 -296 -98
q-189 0 -284 72q-66 50 -89 119zM446 622q-63 0 -110 -22q-31 -14 -52 -43.5t-21 -58.5q0 -28 18 -55.5t44 -41.5q50 -24 111 -24q86 0 139 33t53 87q0 57 -49.5 91t-132.5 34z" />
    <glyph glyph-name="colon" unicode=":" horiz-adv-x="289" 
d="M68 382v163h186v-163h-186zM68 0v163h186v-163h-186z" />
    <glyph glyph-name="semicolon" unicode=";" horiz-adv-x="289" 
d="M69 385v163h183v-163h-183zM68 0v163h186v-149q0 -57 -22 -91.5t-85 -75.5l-59 70q29 27 38 44t10 44q-12 -5 -24 -5h-44z" />
    <glyph glyph-name="less" unicode="&#x3c;" horiz-adv-x="744" 
d="M625 716v-181l-241 -117q-49 -24 -102 -44v-4q53 -20 102 -44l241 -117v-181l-506 265v158z" />
    <glyph glyph-name="equal" unicode="=" horiz-adv-x="744" 
d="M78 570h589v-160h-589v160zM78 334h589v-160h-589v160z" />
    <glyph glyph-name="greater" unicode="&#x3e;" horiz-adv-x="744" 
d="M119 716l506 -265v-158l-506 -265v181l243 117q57 26 104 44v4q-46 17 -104 44l-243 117v181z" />
    <glyph glyph-name="question" unicode="?" horiz-adv-x="873" 
d="M252 534l-207 56q4 36 10.5 53t26.5 42q96 114 358 114q182 0 291.5 -59t109.5 -158q0 -36 -17 -71t-45 -57q-31 -24 -68 -39l-48 -18l-24 -10l-84 -34q-46 -19 -68.5 -47.5t-25.5 -72.5h-186v35q-1 151 124 190l129 40q35 11 48 17.5t23 18.5q15 20 15 44q0 20 -11 39
t-28 28q-43 24 -138 24q-93 0 -135.5 -31t-49.5 -104zM278 36v158h189v-158h-189z" />
    <glyph glyph-name="at" unicode="@" horiz-adv-x="1133" 
d="M1051 310q0 -214 -162 -285q-59 -25 -127 -25q-36 0 -81 11.5t-62 33.5q-42 -45 -131 -45q-74 0 -108 49t-34 125q0 118 71.5 205t188.5 87q78 0 167 -28l-36 -228v1q-5 -32 -5 -56q0 -17 16 -25.5t36 -8.5q59 0 90.5 53.5t31.5 117.5q0 49 -18 101q-34 79 -105.5 119.5
t-161.5 40.5q-115 0 -213 -55.5t-147 -155.5q-32 -66 -32 -130q0 -145 74 -220t220 -75q117 0 201 24l25 -119q-98 -26 -249 -26q-192 0 -305 105t-113 295q0 112 51 208q73 128 211.5 198.5t293.5 70.5q130 0 231 -59.5t152 -174.5q30 -67 30 -129zM593 154q5 32 16.5 97
t17.5 97q-16 4 -30 4q-56 0 -89.5 -53.5t-33.5 -122.5q0 -61 51 -61q42 0 68 39z" />
    <glyph glyph-name="A" unicode="A" horiz-adv-x="894" 
d="M-7 0l332 744h248l328 -744h-230l-60 147h-329l-60 -147h-229zM404 284h86q41 0 71 -3q-14 27 -30 64l-37 92q-29 74 -45 123h-4q-20 -61 -45 -123l-37 -92q-12 -29 -29 -64q30 3 70 3z" />
    <glyph glyph-name="B" unicode="B" horiz-adv-x="922" 
d="M52 0v744h570q124 0 186 -50q56 -45 56 -128q0 -56 -22.5 -90.5t-77.5 -61.5v-3q134 -64 134 -192q0 -109 -96 -175q-35 -25 -73.5 -34.5t-100.5 -9.5h-576zM261 323v-141q0 -15 -4 -26q11 4 26 4h270q54 0 79.5 19t25.5 59q0 85 -105 85h-292zM548 586h-265q-15 0 -26 4
q4 -11 4 -26v-69q0 -15 -4 -26q15 4 26 4h269q42 0 59.5 12t17.5 41q0 60 -81 60z" />
    <glyph glyph-name="C" unicode="C" horiz-adv-x="951" 
d="M913 513l-216 -69q-37 75 -65 107q-53 62 -154 62q-98 0 -150 -62q-56 -67 -56 -166q0 -118 57.5 -183t162.5 -65q85 0 135.5 46.5t76.5 148.5l222 -54q-6 -47 -14.5 -72.5t-28.5 -53.5q-55 -80 -160 -126q-91 -41 -228 -41q-108 0 -170.5 14t-121.5 52
q-171 109 -171 322q0 99 40.5 179t117.5 132q110 75 290 75q206 0 333 -103q39 -31 60.5 -61.5t39.5 -81.5z" />
    <glyph glyph-name="D" unicode="D" horiz-adv-x="951" 
d="M70 744h454q213 0 311 -102q45 -49 73 -123.5t28 -146.5q0 -86 -33 -161.5t-93 -128.5q-94 -82 -255 -82h-485v744zM279 155l227 -1q94 0 149 58t55 158q0 98 -63 161q-56 55 -138 55h-207q-12 0 -27 4q4 -11 4 -26v-409z" />
    <glyph glyph-name="E" unicode="E" horiz-adv-x="814" 
d="M51 0v744h731v-160h-522v-84q0 -15 -3 -26q11 4 26 4h414v-160h-437v-136q0 -15 -3 -26q10 4 26 4h502v-160h-734z" />
    <glyph glyph-name="F" unicode="F" horiz-adv-x="775" 
d="M51 0v744h705v-158h-474q-15 0 -26 4q4 -11 4 -26v-61q0 -15 -4 -26q11 4 26 4h402v-158h-402q-15 0 -26 4q4 -11 4 -26v-301h-209z" />
    <glyph glyph-name="G" unicode="G" horiz-adv-x="946" 
d="M891 549l-207 -51q-63 115 -185 115q-101 0 -162.5 -64.5t-61.5 -170.5q0 -117 62 -181.5t175 -64.5q70 0 122.5 24t52.5 56v85h-217l67 163h364v-374q-128 -63 -201 -80q-84 -21 -188 -21q-110 0 -176.5 15t-126.5 53q-84 53 -130.5 138t-46.5 185q0 169 127.5 276
t330.5 107t329 -111q44 -38 72 -99z" />
    <glyph glyph-name="H" unicode="H" horiz-adv-x="935" 
d="M52 0v744h209v-239q0 -15 -4 -26q11 4 26 4h367q15 0 26 -4q-4 11 -4 26v239h209v-744h-209v298q0 15 4 26q-11 -4 -26 -4h-389v-320h-209z" />
    <glyph glyph-name="I" unicode="I" horiz-adv-x="315" 
d="M53 0v744h209v-744h-209z" />
    <glyph glyph-name="J" unicode="J" horiz-adv-x="785" 
d="M13 278l205 68q-11 -32 -11 -60q0 -86 35.5 -123t119.5 -37q83 0 126.5 33t43.5 95v490h204v-487q0 -56 -4 -81.5t-16 -51.5q-72 -156 -360 -156q-144 0 -236 51q-49 27 -80.5 78.5t-31.5 105.5q0 37 5 75z" />
    <glyph glyph-name="K" unicode="K" horiz-adv-x="930" 
d="M52 0v744h209v-226q0 -68 -4 -119l3 -1q53 53 86 82l301 264h258l-322 -279l358 -465h-268l-236 311q-8 9 -11 20q-8 -12 -15 -18l-150 -128v-185h-209z" />
    <glyph glyph-name="L" unicode="L" horiz-adv-x="682" 
d="M53 744h209v-559q0 -15 -4 -26q11 4 26 4h389v-163h-620v744z" />
    <glyph glyph-name="M" unicode="M" horiz-adv-x="1119" 
d="M53 0v744h339l118 -292q25 -62 46 -125h3q18 56 45 125l115 292h347v-744h-209v397q0 94 6 195l-6 1q-28 -86 -67 -183l-165 -410h-133l-161 389q-36 86 -69 181l-5 -1q6 -98 6 -193l-1 -376h-209z" />
    <glyph glyph-name="N" unicode="N" horiz-adv-x="935" 
d="M51 0v744h227l306 -383q43 -53 88 -117l4 1q-5 77 -5 146v353h209v-744h-237l-296 369q-54 68 -88 118l-4 -2q5 -62 5 -146v-339h-209z" />
    <glyph glyph-name="O" unicode="O" horiz-adv-x="1005" 
d="M516 759q216 0 345 -112q59 -52 85.5 -116t26.5 -158t-38 -172.5t-107 -128.5q-64 -46 -142 -66.5t-194 -20.5q-219 0 -339.5 103t-120.5 290q0 176 130.5 278.5t353.5 102.5zM504 612q-110 0 -169 -62q-64 -64 -64 -171q0 -112 64.5 -181t169.5 -69q53 0 101.5 21
t77.5 56q50 57 50 164q0 115 -60.5 178.5t-169.5 63.5z" />
    <glyph glyph-name="P" unicode="P" horiz-adv-x="871" 
d="M51 0v744h433q180 0 250 -38q51 -27 83 -84t32 -120q0 -72 -32 -127t-89 -80q-69 -31 -211 -31h-235q-15 0 -26 4q4 -11 4 -26v-242h-209zM504 586h-222q-15 0 -26 4q4 -11 4 -26v-113q0 -15 -4 -26q11 4 26 4h214q74 0 106.5 19.5t30.5 62.5q-1 40 -31.5 57.5
t-97.5 17.5z" />
    <glyph glyph-name="Q" unicode="Q" horiz-adv-x="1008" 
d="M1031 -13l-157 -109q-48 22 -82 44.5t-106 82.5q-87 -20 -191 -20q-219 0 -339.5 103t-120.5 290q0 176 130.5 278.5t353.5 102.5q219 0 345 -112q60 -52 86 -116t26 -158q0 -67 -22.5 -131.5t-61.5 -110.5q-21 -23 -45 -43q24 -20 55 -40q43 -29 66 -40t63 -21zM553 129
l1 2q-51 54 -75.5 74t-95.5 66l160 77q21 -5 38 -21l12 -11q16 -14 25 -22.5t32 -29.5q14 -13 50 -47q37 60 37 153q0 115 -60 178.5t-170 63.5q-108 0 -169 -62q-64 -66 -64 -172q0 -140 98 -209q59 -40 136 -40h33h12z" />
    <glyph glyph-name="R" unicode="R" horiz-adv-x="930" 
d="M53 0v744h538q85 0 138.5 -17t91.5 -55q60 -60 60 -164q0 -53 -22 -98.5t-60 -72.5q-37 -25 -99 -41q22 -24 43 -53l180 -243h-263l-205 279h-171q-15 0 -26 4q4 -11 4 -26v-257h-209zM581 586l-297 1q-15 0 -26 3q4 -11 4 -26v-105q0 -11 -4 -26q11 4 26 4h257
q81 0 107 15q34 19 34 60q0 46 -31 64q-17 10 -70 10z" />
    <glyph glyph-name="S" unicode="S" horiz-adv-x="868" 
d="M6 220l228 49q27 -136 200 -136q91 0 132.5 16.5t41.5 53.5q0 23 -21 41q-26 24 -100 34l-162 21q-140 19 -207 66q-39 27 -61 67t-22 84q0 55 39 108.5t100 82.5q109 52 256 52q212 0 331 -110q29 -27 43.5 -53t26.5 -71l-225 -48q-20 70 -45 96q-41 43 -139 43
q-70 0 -107 -16q-47 -20 -50 -59q-3 -34 27 -52t108 -29l144 -20q132 -19 211 -68q38 -24 62 -67.5t24 -87.5q0 -51 -29 -98.5t-77 -76.5q-52 -31 -118 -44t-174 -13q-125 0 -190.5 13t-117.5 47t-81 73.5t-48 101.5z" />
    <glyph glyph-name="T" unicode="T" horiz-adv-x="791" 
d="M9 581v163h775v-163h-260q-15 0 -26 4q4 -11 4 -26v-559h-209v559q0 15 4 26q-11 -4 -26 -4h-262z" />
    <glyph glyph-name="U" unicode="U" horiz-adv-x="935" 
d="M47 744h209v-425q0 -99 51.5 -141.5t170.5 -42.5q114 0 165 67q30 41 30 117v425h209v-425q0 -174 -108 -259q-105 -83 -303 -83q-190 0 -309 79q-60 40 -87.5 99t-27.5 148v441z" />
    <glyph glyph-name="V" unicode="V" horiz-adv-x="878" 
d="M-3 744h226l169 -414q24 -59 44 -122h4q13 41 45 122l172 414h223l-332 -744h-221z" />
    <glyph glyph-name="W" unicode="W" horiz-adv-x="1263" 
d="M-4 744h231l120 -363q25 -77 43 -148h5q15 62 41 149l114 362h173l112 -366q22 -74 40 -151h5q15 59 43 151l118 366h227l-287 -744h-218l-83 272q-23 72 -42 152h-4q-20 -80 -43 -152l-85 -272h-222z" />
    <glyph glyph-name="X" unicode="X" horiz-adv-x="953" 
d="M-1 0l344 397l-305 347h269l149 -173q13 -16 22 -31q9 15 22 31l146 173h260l-296 -347l345 -397h-263l-192 223q-13 15 -22 30q-9 -15 -21 -30l-190 -223h-268z" />
    <glyph glyph-name="Y" unicode="Y" horiz-adv-x="917" 
d="M-2 744h252l168 -283q24 -40 39 -74h3q17 33 40 73l176 284h243l-355 -535v-209h-217v215z" />
    <glyph glyph-name="Z" unicode="Z" horiz-adv-x="886" 
d="M32 0v137l372 357q50 49 98 88l-2 4q-70 -5 -131 -5h-329v163h795v-115l-386 -379q-48 -47 -97 -88l2 -4q56 5 130 5h370v-163h-822z" />
    <glyph glyph-name="bracketleft" unicode="[" horiz-adv-x="450" 
d="M441 744v-134h-164q-15 0 -26 4q4 -11 4 -26v-662q0 -15 -4 -26q11 4 26 4h164v-127h-393v967h393z" />
    <glyph glyph-name="backslash" unicode="\" horiz-adv-x="493" 
d="M489 0h-104l-378 744h103z" />
    <glyph glyph-name="bracketright" unicode="]" horiz-adv-x="450" 
d="M402 744v-967h-393v134h164q15 0 26 -4q-4 11 -4 26v662q0 15 4 26q-11 -4 -26 -4h-164v127h393z" />
    <glyph glyph-name="asciicircum" unicode="^" horiz-adv-x="744" 
d="M692 372h-185l-93 156q-25 42 -40 76h-3q-15 -31 -40 -76l-94 -156h-184l237 372h165z" />
    <glyph glyph-name="underscore" unicode="_" horiz-adv-x="589" 
d="M0 -56h589v-105h-589v105z" />
    <glyph glyph-name="grave" unicode="`" 
d="M-197 748h158l138 -148h-140z" />
    <glyph glyph-name="a" unicode="a" horiz-adv-x="760" 
d="M156 402l-85 106q123 58 283 65q158 8 249 -37.5t91 -131.5v-174q0 -56 13 -73t58 -17l-13 -140h-122q-64 0 -87 15.5t-31 62.5q-112 -85 -258 -85q-88 0 -147 33q-37 20 -61 57.5t-24 74.5t19.5 72.5t50.5 56.5q50 33 138 49q44 7 145 13q92 4 115 18q14 7 14 21
q0 58 -136 58q-107 0 -212 -44zM505 197v39q0 25 3 43q-76 -28 -180 -46q-53 -8 -77 -26t-22 -47q3 -44 79 -44q70 0 137 38q25 13 60 43z" />
    <glyph glyph-name="b" unicode="b" horiz-adv-x="780" 
d="M48 0v744h189v-148q0 -46 -5 -99l3 -1q59 43 106 60t108 17q129 0 209 -67q98 -84 98 -231q0 -132 -81.5 -211t-217.5 -79q-67 0 -118 17t-104 58l-3 -2q5 -16 5 -31v-27h-189zM405 424q-77 0 -125 -37.5t-52 -101.5q-3 -69 45 -109q20 -17 52.5 -28.5t61.5 -11.5
q79 0 123.5 37t44.5 102t-42 107t-108 42z" />
    <glyph glyph-name="c" unicode="c" horiz-adv-x="767" 
d="M751 359l-200 -30q-23 62 -59.5 90t-93.5 28q-81 0 -123 -54q-37 -50 -37 -114q0 -63 37 -114q42 -54 123 -54q58 0 94 28t59 90l200 -30q-25 -59 -53 -94t-71 -63q-89 -57 -225 -57q-144 0 -245 60q-129 76 -129 241q0 130 102.5 208.5t271.5 78.5q158 0 253 -77
q59 -48 96 -137z" />
    <glyph glyph-name="d" unicode="d" horiz-adv-x="783" 
d="M733 0h-189v27q0 15 5 31l-3 2q-53 -41 -104 -58t-118 -17q-136 0 -217.5 79t-81.5 211q0 147 98 231q80 67 209 67q61 0 108 -17t106 -60l3 1q-5 42 -5 99v148h189v-744zM376 424q-66 0 -108 -42t-42 -107q0 -64 47 -103t121 -36t118.5 44.5t40.5 104.5q-4 64 -52 101.5
t-125 37.5z" />
    <glyph glyph-name="e" unicode="e" horiz-adv-x="783" 
d="M761 230h-479q-20 0 -42 5q10 -63 47 -90.5t111 -27.5q56 0 87 17.5t49 59.5l200 -42q-50 -80 -142 -123.5t-212 -43.5q-157 0 -256.5 83.5t-99.5 215.5q0 68 36.5 130.5t97.5 99.5q98 59 235 59q198 0 294 -118q40 -47 57 -99.5t17 -125.5zM297 346h190q34 0 59 -5
q-13 45 -27 64q-40 53 -127 53q-121 0 -155 -117q25 5 60 5z" />
    <glyph glyph-name="f" unicode="f" horiz-adv-x="434" 
d="M8 408v150h106q0 66 4 94t16 48q16 28 52 40t105 12q58 0 135 -14q1 0 15 -2l-19 -119q-43 10 -72 10q-49 0 -49 -49v-10q0 -6 -4 -14q11 4 26 4h104v-150h-102q-15 0 -25 4q3 -11 3 -26v-386h-189v386q0 15 4 26q-11 -4 -26 -4h-84z" />
    <glyph glyph-name="g" unicode="g" horiz-adv-x="785" 
d="M546 558h191v-440q0 -93 -42 -151t-134 -92q-85 -31 -197 -31q-127 0 -314 43l99 146q73 -19 98 -24q52 -9 101 -9q60 0 87.5 4.5t58.5 20.5q55 27 55 83v17q-42 -27 -90 -40q-66 -17 -117 -17q-116 0 -195 45q-55 31 -89 89t-34 122q0 111 82 180q80 67 214 67
q119 0 228 -61q-2 11 -2 26v22zM380 423q-67 0 -105.5 -27.5t-38.5 -75.5q0 -27 15 -51.5t40 -38.5q35 -18 101 -18q155 0 155 104q0 107 -167 107z" />
    <glyph glyph-name="h" unicode="h" horiz-adv-x="741" 
d="M49 0v744h188v-148q0 -51 -5 -110l3 -1q93 80 206 80q123 0 187 -51.5t64 -149.5v-364h-189v271q0 94 -38 122q-32 26 -82 26q-59 0 -102.5 -36t-43.5 -85v-298h-188z" />
    <glyph glyph-name="i" unicode="i" horiz-adv-x="284" 
d="M48 0v558h189v-558h-189zM48 599v142h189v-142h-189z" />
    <glyph glyph-name="j" unicode="j" horiz-adv-x="282" 
d="M-87 -139l19 119q32 -12 58 -12q33 0 44.5 13t11.5 50v527h189v-538q0 -59 -4 -85.5t-17 -45.5q-31 -48 -128 -48q-48 0 -120 11q-19 3 -53 9zM46 599v142h189v-142h-189z" />
    <glyph glyph-name="k" unicode="k" horiz-adv-x="726" 
d="M46 0v744h189v-282q0 -70 -4 -122l3 -2q41 43 87 86l147 134h248l-246 -213l257 -345h-233l-151 209q-8 12 -12 22q-6 -10 -17 -19l-79 -66v-146h-189z" />
    <glyph glyph-name="l" unicode="l" horiz-adv-x="284" 
d="M47 0v744h189v-744h-189z" />
    <glyph glyph-name="m" unicode="m" horiz-adv-x="1191" 
d="M1147 0h-189v271q0 94 -38 122q-32 26 -82 26q-59 0 -102.5 -36t-43.5 -85v-298h-189v271q0 94 -38 122q-32 26 -82 26q-59 0 -102.5 -36t-43.5 -85v-298h-188v558h188v-34q0 -18 -5 -38l3 -1q93 80 206 80q116 0 177 -46q17 -13 52 -46q51 49 91 66q59 26 135 26
q123 0 187 -51.5t64 -149.5v-364z" />
    <glyph glyph-name="n" unicode="n" horiz-adv-x="736" 
d="M49 0v558h188v-34q0 -18 -5 -38l3 -1q93 80 206 80q123 0 187 -51.5t64 -149.5v-364h-189v271q0 94 -38 122q-32 26 -82 26q-59 0 -102.5 -36t-43.5 -85v-298h-188z" />
    <glyph glyph-name="o" unicode="o" horiz-adv-x="809" 
d="M413 573q154 0 253 -70q118 -84 118 -226q0 -64 -32 -123t-86 -97q-56 -38 -121.5 -55t-159.5 -17q-155 0 -251 68q-51 36 -80.5 95.5t-29.5 125.5q0 153 114 225q52 34 126.5 54t148.5 20zM401 448q-73 0 -116.5 -47t-43.5 -127q0 -46 9 -72.5t34 -51.5q43 -43 117 -43
q79 0 123 45t44 126q0 82 -43.5 126t-123.5 44z" />
    <glyph glyph-name="p" unicode="p" horiz-adv-x="788" 
d="M50 558h189v-27q0 -15 -5 -31l3 -2q53 41 104 58t118 17q136 0 217.5 -79t81.5 -211q0 -147 -98 -231q-80 -67 -209 -67q-60 0 -108 17t-106 60l-3 -1q5 -53 5 -99v-120h-189v716zM389 422q-65 0 -114 -40q-48 -39 -45 -109q3 -64 51.5 -101.5t125.5 -37.5q66 0 108 42
t42 107t-44.5 102t-123.5 37z" />
    <glyph glyph-name="q" unicode="q" horiz-adv-x="788" 
d="M738 558v-716h-189v120q0 57 5 99l-3 1q-58 -43 -106 -60t-108 -17q-129 0 -209 67q-98 84 -98 231q0 132 81.5 211t217.5 79q67 0 118 -17t104 -58l3 2q-5 16 -5 31v27h189zM399 422q-73 4 -120.5 -35.5t-47.5 -103.5q0 -65 42 -107t108 -42q77 0 125.5 38t51.5 101
q3 64 -40 104.5t-119 44.5z" />
    <glyph glyph-name="r" unicode="r" horiz-adv-x="450" 
d="M48 0v558h189v-31q0 -17 -5 -36l3 -1q50 45 92 60.5t114 15.5v-192q-50 18 -88 18q-59 0 -115 -49l-1 -343h-189z" />
    <glyph glyph-name="s" unicode="s" horiz-adv-x="736" 
d="M21 133l205 55q19 -44 55.5 -61.5t101.5 -13.5q92 6 95 44q1 13 -8 20.5t-32 13.5l-30 6l-30 6l-136 18q-103 14 -149 44q-26 16 -42.5 46t-16.5 62q0 85 94.5 142.5t234.5 57.5q116 0 200 -43q36 -18 60 -43t50 -69l-195 -42q-29 41 -54 55.5t-66 14.5q-53 0 -76 -16
q-16 -14 -18 -30q-1 -16 16.5 -24.5t58.5 -13.5l83 -9q151 -15 226 -59q70 -44 70 -125q0 -37 -27 -77t-64 -59q-59 -30 -138 -39q-70 -9 -118 -9q-89 0 -141.5 9t-99.5 32q-33 17 -57 40t-52 67z" />
    <glyph glyph-name="t" unicode="t" horiz-adv-x="411" 
d="M13 408v150h57q15 0 26 -4q-4 11 -4 26v37l188 127v-164q0 -15 -4 -26q11 4 26 4h100v-150h-100q-15 0 -26 4q4 -11 4 -26v-191q0 -61 69 -61q23 0 53 5v-123q-61 -24 -125 -28q-185 -11 -185 138v260q0 15 4 26q-11 -4 -26 -4h-57z" />
    <glyph glyph-name="u" unicode="u" horiz-adv-x="736" 
d="M687 558v-558h-188v34q0 18 5 38l-3 1q-93 -80 -206 -80q-123 0 -187 51.5t-64 149.5v364h189v-271q0 -94 38 -122q34 -26 82 -26q59 0 102.5 36t43.5 85v298h188z" />
    <glyph glyph-name="v" unicode="v" horiz-adv-x="646" 
d="M-3 558h204l76 -176q21 -49 45 -116h3q24 65 46 115l76 177h203l-268 -558h-124z" />
    <glyph glyph-name="w" unicode="w" horiz-adv-x="1033" 
d="M-4 558h210l76 -178q23 -53 46 -119h3q20 57 45 119l74 178h140l76 -181q28 -69 45 -120h4q20 62 45 120l75 181h201l-267 -558h-125l-78 187q-26 63 -45 122h-4q-19 -59 -45 -122l-75 -187h-130z" />
    <glyph glyph-name="x" unicode="x" horiz-adv-x="803" 
d="M-4 0l280 282l-267 276h257l129 -135q8 -9 14 -21q5 12 14 21l125 135h239l-258 -270l278 -288h-254l-143 146q-7 7 -12 17q-6 -12 -12 -18l-136 -145h-254z" />
    <glyph glyph-name="y" unicode="y" horiz-adv-x="682" 
d="M-4 558h220l77 -175q24 -54 44 -112h3q20 55 46 111l81 176h220l-283 -564q-40 -79 -80 -107q-55 -37 -139 -37q-68 0 -141 35l73 142q39 -27 74 -27q36 0 51 59z" />
    <glyph glyph-name="z" unicode="z" horiz-adv-x="667" 
d="M24 0v106l233 218q47 44 101 88l-2 4q-71 -5 -134 -5h-172v147h576v-123l-225 -208q-46 -42 -102 -88l1 -4q58 5 135 5h206v-140h-617z" />
    <glyph glyph-name="braceleft" unicode="{" horiz-adv-x="400" 
d="M210 262v-3q39 -19 55.5 -50t16.5 -87v-128q1 -42 6 -53q7 -17 25 -23.5t57 -6.5h16v-134h-166q-75 0 -110 39t-35 122v167q0 77 -60 88v135q60 11 60 88v167q0 83 35 122t110 39h166v-134h-15q-54 0 -69 -12q-13 -11 -16 -22t-4 -50v-127q0 -56 -16.5 -87t-55.5 -50z
" />
    <glyph glyph-name="bar" unicode="|" horiz-adv-x="292" 
d="M72 744h149v-967h-149v967z" />
    <glyph glyph-name="braceright" unicode="}" horiz-adv-x="400" 
d="M191 259v3q-39 19 -55.5 50t-16.5 87v127q-1 45 -6 54q-7 17 -25 23.5t-57 6.5h-16v134h166q75 0 110 -39t35 -122v-167q0 -77 60 -88v-135q-60 -11 -60 -88v-167q0 -83 -35 -122t-110 -39h-166v134h15q54 0 70 12q12 11 15 22t4 49v128q0 55 16.5 86.5t55.5 50.5z" />
    <glyph glyph-name="asciitilde" unicode="~" horiz-adv-x="744" 
d="M152 263l-104 106q37 62 89.5 92t113.5 24q23 -3 62 -15q3 -1 75 -26q64 -24 97 -25q59 -3 107 62l103 -106q-69 -117 -194 -117q-22 0 -61 11q-13 3 -77 28q-69 25 -103 28q-60 4 -108 -62z" />
    <glyph glyph-name="exclamdown" unicode="&#xa1;" horiz-adv-x="307" 
d="M32 -183l18 537h168l17 -537h-203zM42 400v158h189v-158h-189z" />
    <glyph glyph-name="cent" unicode="&#xa2;" horiz-adv-x="767" 
d="M441 79v-82h-103v84q-81 9 -145 37q-165 77 -165 260q0 117 81 191t229 93v85h103v-83q121 -10 193.5 -59.5t116.5 -153.5l-200 -30q-23 62 -59 90t-94 28q-81 0 -123 -54q-37 -51 -37 -114q0 -64 37 -114q42 -54 123 -54q57 0 93.5 28t59.5 90l200 -30
q-43 -103 -116 -153t-194 -59z" />
    <glyph glyph-name="sterling" unicode="&#xa3;" horiz-adv-x="858" 
d="M97 -5l-75 97q24 23 71 53q45 30 101 58q8 32 13 65q-20 -5 -39 -5h-140v101h67q36 0 73 -6l2 4q-71 56 -95 92.5t-24 86.5q0 56 34.5 102.5t94.5 70.5q100 42 225 42q171 0 286 -59q46 -24 79 -61.5t44 -79.5q8 -29 7 -75h-217q-4 42 -13.5 65.5t-30.5 41.5
q-45 38 -115 38q-71 0 -115 -29.5t-44 -77.5q0 -31 12 -54l26 -54l13 -26q0 -1 3.5 -8.5t5.5 -12.5h170v-101h-164l-7 -28q-5 -19 -11 -31q66 -3 107 -15q14 -4 133 -51q41 -17 77 -17q57 0 122 55l74 -87q-34 -40 -81 -71q-78 -49 -157 -49q-50 0 -102 18q-13 6 -86 31
q-107 39 -165 39t-159 -62z" />
    <glyph glyph-name="currency" unicode="&#xa4;" horiz-adv-x="744" 
d="M477 595l89 89l119 -118l-90 -90q24 -51 24 -104t-24 -105l89 -89l-118 -118l-89 89q-53 -23 -105 -23t-104 23l-89 -89l-119 118l89 89q-23 53 -23 105t23 105l-89 89l119 118l89 -89q52 24 104 24q53 0 105 -24zM381 476q-43 4 -76 -24.5t-37 -71.5q-3 -43 25 -75.5
t71 -36.5t76 24t37 72q4 43 -24 75.5t-72 36.5z" />
    <glyph glyph-name="yen" unicode="&#xa5;" horiz-adv-x="741" 
d="M670 427v-77h-176l-20 -33q-11 -19 -25 -34l1 -3q40 4 93 4h127v-77h-194q-15 0 -26 4q4 -11 4 -26v-185h-168v185q0 15 4 26q-11 -4 -26 -4h-194v77h127q52 0 94 -3q-14 17 -25 36l-20 33h-176v77h65q39 0 70 -3q-30 44 -51 79l-146 241h191l129 -230q17 -29 42 -83h2
q22 46 43 83l129 230h188l-146 -241q-26 -42 -51 -79q31 3 70 3h65z" />
    <glyph glyph-name="brokenbar" unicode="&#xa6;" horiz-adv-x="292" 
d="M72 744h149v-372h-149v372zM72 149h149v-372h-149v372z" />
    <glyph glyph-name="section" unicode="&#xa7;" horiz-adv-x="816" 
d="M23 7h252q8 -62 39.5 -86t103.5 -24q109 0 109 80q0 36 -34 59q-23 15 -42 18l-214 31q-57 9 -122 34q-49 19 -75.5 55t-26.5 85t26 81t83 54q-46 34 -62 60.5t-16 68.5q0 109 98 172.5t265 63.5q80 0 154.5 -25t116.5 -66q24 -23 35.5 -49t18.5 -72h-215
q-16 43 -48 62.5t-88 19.5q-50 0 -79.5 -20t-29.5 -55q0 -31 14 -43.5t55 -20.5l159 -26q89 -16 123 -23q100 -21 140 -56.5t40 -103.5q0 -60 -37 -94q-27 -27 -88 -44l-1 -3q54 -28 74.5 -55.5t20.5 -70.5q0 -136 -110 -192q-111 -58 -279 -58q-84 0 -160 22.5t-123 62.5
q-33 27 -50.5 63t-26.5 95zM454 319l-175 28q-44 -18 -45 -49q-1 -28 17.5 -43.5t61.5 -23.5l231 -39q36 7 36 43q0 63 -126 84z" />
    <glyph glyph-name="dieresis" unicode="&#xa8;" 
d="M-208 600v147h165v-147h-165zM43 600v147h165v-147h-165z" />
    <glyph glyph-name="copyright" unicode="&#xa9;" horiz-adv-x="858" 
d="M429 768q164 0 280 -116t116 -280t-116 -280t-280 -116t-280.5 116t-116.5 280t116.5 280t280.5 116zM429 696q-135 0 -230 -95t-95 -229t95 -229t230 -95q134 0 229 95t95 229t-95 229t-229 95zM640 438l-114 -34q-23 47 -42.5 62t-55.5 15q-41 0 -65.5 -26t-24.5 -70
q0 -51 24.5 -78t71.5 -27q39 0 60.5 20.5t33.5 69.5l117 -28q-4 -31 -10.5 -46t-22.5 -32q-60 -65 -177 -65q-91 0 -140 31q-83 51 -83 150q0 83 58.5 131.5t158.5 48.5q108 0 171 -58q24 -21 40 -64z" />
    <glyph glyph-name="ordfeminine" unicode="&#xaa;" horiz-adv-x="493" 
d="M109 650l-57 68q82 37 180 41q100 4 156.5 -23t56.5 -80v-104q0 -32 7.5 -40t36.5 -9l-9 -90h-78q-38 0 -54.5 10t-19.5 35q-66 -49 -157 -49q-64 0 -105 28.5t-41 72.5q0 69 85 97q42 14 135 19q45 2 60.5 6t15.5 14q0 30 -80 30q-64 0 -132 -26zM322 535v20q0 13 3 23
q-49 -17 -108 -26q-31 -5 -45 -14.5t-13 -25.5q1 -23 45 -23q59 0 118 46z" />
    <glyph glyph-name="guillemotleft" unicode="&#xab;" horiz-adv-x="669" 
d="M23 294l177 177h161l-152 -183l144 -186h-157zM307 294l177 177h163l-152 -184l143 -185h-158z" />
    <glyph glyph-name="logicalnot" unicode="&#xac;" horiz-adv-x="744" 
d="M76 572h591v-400h-172v218q0 15 4 26q-11 -4 -26 -4h-397v160z" />
    <glyph glyph-name="registered" unicode="&#xae;" horiz-adv-x="858" 
d="M429 768q164 0 280 -116t116 -280t-116 -280t-280 -116t-280.5 116t-116.5 280t116.5 280t280.5 116zM429 696q-135 0 -230 -95t-95 -229t95 -229t230 -95q134 0 229 95t95 229t-95 229t-229 95zM244 210v347h229q142 0 142 -113q0 -72 -83 -98q18 -18 33 -37l76 -99
h-140l-96 125h-28q-15 0 -26 4q4 -11 4 -26v-103h-111zM462 473h-91q-15 0 -26 4q4 -12 4 -27v-8q0 -12 -4 -27q11 4 27 4h71q35 0 47.5 5.5t12.5 21.5t-8.5 21.5t-32.5 5.5z" />
    <glyph glyph-name="macron" unicode="&#xaf;" 
d="M-181 629v88h362v-88h-362z" />
    <glyph glyph-name="degree" unicode="&#xb0;" horiz-adv-x="398" 
d="M199 746q69 0 118 -49t49 -118q0 -68 -49 -117t-118 -49t-118 49t-49 117q0 69 49 118t118 49zM199 655q-31 0 -53 -22t-22 -54q0 -31 22 -53t53 -22t53 22t22 53q0 32 -22 54t-53 22z" />
    <glyph glyph-name="plusminus" unicode="&#xb1;" horiz-adv-x="744" 
d="M78 561h186q15 0 26 -4q-4 11 -4 26v147h174v-147q0 -15 -4 -26q11 4 26 4h185v-160h-185q-15 0 -26 4q4 -11 4 -26v-147h-174v147q0 11 4 26q-11 -4 -26 -4h-186v160zM78 179h589v-160h-589v160z" />
    <glyph glyph-name="twosuperior" unicode="&#xb2;" horiz-adv-x="522" 
d="M520 298h-519q-3 68 39 120q27 34 74 60q34 18 96 40q115 42 133 61q16 17 16 38q0 23 -26 38t-67 15q-58 0 -80.5 -18.5t-24.5 -65.5l-141 -49q-5 26 -5 48q0 168 269 168q122 0 174 -41q52 -39 52 -100q0 -56 -40 -88q-26 -22 -96 -43q-80 -26 -118 -41
q-44 -17 -62 -30l-3 -2l-6 -2q-3 0 -6 -1l1 -4q83 5 153 5h187v-108z" />
    <glyph glyph-name="threesuperior" unicode="&#xb3;" horiz-adv-x="522" 
d="M1 467l138 -26v-2q1 -5 1 -11q2 -29 26 -42t77 -13q122 0 122 64q0 45 -85 45h-123v96h138q28 0 44 11.5t16 31.5q0 49 -103 49t-103 -59q0 -1 -1 -3l-142 -19v5q-5 77 48 113q64 46 190 46q122 0 192 -35.5t67 -96.5q-1 -23 -14 -48q-20 -37 -38 -37q-2 1 -7 2v-3
q70 -32 70 -101q0 -75 -87 -118q-56 -27 -174 -27q-155 0 -215 51q-36 30 -36 99z" />
    <glyph glyph-name="acute" unicode="&#xb4;" 
d="M-99 600l138 148h158l-156 -148h-140z" />
    <glyph glyph-name="mu" unicode="&#xb5;" horiz-adv-x="736" 
d="M627 539v-539h-148v40q0 17 8 55l-6 1q-18 -53 -47 -78q-43 -37 -94 -32q-37 4 -62 24q-3 2 -29 28l-3 -2q5 -44 5 -84v-78q0 -35 -7 -97h-154q20 110 20 201v561h154v-293q0 -59 9 -83q9 -23 32 -36.5t53 -13.5q59 0 87 36.5t28 113.5v276h154z" />
    <glyph glyph-name="paragraph" unicode="&#xb6;" horiz-adv-x="651" 
d="M247 -223v558q0 9 4 18q-18 -4 -19 -4q-29 -3 -70 9t-72 33q-69 47 -69 153q0 101 65.5 150.5t200.5 49.5h349v-126h-69q-15 0 -26 4q4 -11 4 -26v-819h-107v819q0 15 4 26q-11 -4 -26 -4h-40q-15 0 -26 4q4 -11 4 -26v-819h-107z" />
    <glyph glyph-name="periodcentered" unicode="&#xb7;" horiz-adv-x="744" 
d="M373 502q53 0 91 -38t38 -91q0 -54 -38 -92t-91 -38q-54 0 -92 38t-38 92q0 53 38 91t92 38z" />
    <glyph glyph-name="cedilla" unicode="&#xb8;" 
d="M-144 -232l25 71q10 -2 79 -6q51 -2 54 26q3 27 -48 27h-48l47 126h81l-13 -36q-7 -22 -17 -39q61 1 86 -12q18 -10 29.5 -27t11.5 -34q0 -22 -14 -45t-34 -35q-43 -25 -136 -25q-45 0 -103 9z" />
    <glyph glyph-name="onesuperior" unicode="&#xb9;" horiz-adv-x="522" 
d="M108 572v83q58 8 88 27t51 62h95v-446h-131v225q0 44 3 76q-46 -26 -106 -27z" />
    <glyph glyph-name="ordmasculine" unicode="&#xba;" horiz-adv-x="524" 
d="M268 759q105 0 168.5 -49t63.5 -129q0 -39 -20 -74.5t-54 -58.5q-67 -43 -175 -43q-103 0 -164.5 47.5t-61.5 126.5q0 92 72 136t171 44zM261 678q-44 0 -69.5 -26.5t-25.5 -72.5q0 -95 95 -95q47 0 73 25.5t26 71.5q0 47 -25.5 72t-73.5 25z" />
    <glyph glyph-name="guillemotright" unicode="&#xbb;" horiz-adv-x="672" 
d="M22 471h165l179 -180l-170 -189h-158l141 183zM311 471h160l179 -179l-169 -190h-159l142 183z" />
    <glyph glyph-name="onequarter" unicode="&#xbc;" horiz-adv-x="1243" 
d="M107 572v83q58 8 88 27.5t51 61.5h95v-446h-131v225q0 44 3 76q-49 -26 -106 -27zM340 0l442 744h106l-444 -744h-104zM732 94v77l251 275h159v-228q0 -15 -4 -26q11 4 26 4h70v-102h-70q-15 0 -26 4q4 -11 4 -26v-72h-130v72q0 15 4 26q-11 -4 -26 -4h-258zM952 196h38
q15 0 26 -4q-4 11 -4 26v44q0 33 5 72l-4 1q-57 -76 -128 -140l1 -3q37 4 66 4z" />
    <glyph glyph-name="onehalf" unicode="&#xbd;" horiz-adv-x="1243" 
d="M107 572v83q58 8 88 27.5t51 61.5h95v-446h-131v225q0 44 3 76q-49 -26 -106 -27zM340 0l442 744h106l-444 -744h-104zM1242 0h-519q-3 68 39 120q25 32 74 60q34 18 96 40q13 4 69 26q44 17 62 33.5t18 39.5t-26 38t-67 15q-58 0 -80.5 -18.5t-24.5 -65.5l-141 -49
q-5 25 -5 48q0 168 269 168q122 0 174 -41q52 -39 52 -100q0 -56 -40 -88q-29 -23 -96 -43q-146 -45 -189 -78q64 3 151 3h184v-108z" />
    <glyph glyph-name="threequarters" unicode="&#xbe;" horiz-adv-x="1243" 
d="M0 467l138 -26q2 -39 24 -53.5t80 -14.5q122 0 122 64q0 45 -85 45h-123v96h138q28 0 44 11.5t16 31.5q0 49 -103 49q-74 0 -96 -30q-8 -12 -8 -32l-142 -19q-1 45 9.5 71.5t38.5 46.5q64 46 190 46q122 0 190.5 -35t68.5 -97q0 -26 -13 -45t-45 -41q32 -14 50.5 -41.5
t18.5 -59.5q0 -75 -87 -118q-56 -27 -174 -27q-155 0 -215 51q-36 30 -36 99zM355 0l441 744h107l-444 -744h-104zM732 94v77l251 275h159v-228q0 -15 -4 -26q11 4 26 4h70v-102h-70q-15 0 -26 4q4 -11 4 -26v-72h-130v72q0 15 4 26q-11 -4 -26 -4h-258zM948 196h42
q15 0 26 -4q-4 11 -4 26v44q0 41 5 72l-4 1q-65 -80 -137 -140l2 -4q36 5 70 5z" />
    <glyph glyph-name="questiondown" unicode="&#xbf;" horiz-adv-x="873" 
d="M621 61l207 -56q-4 -36 -10.5 -53t-26.5 -42q-94 -114 -358 -114q-182 0 -291.5 59t-109.5 158q0 36 17 71t45 57q31 24 68 39l48 18l24 10l83 34q47 19 69.5 47.5t25.5 72.5h186v-35q1 -151 -124 -190l-129 -40q-35 -11 -48 -17.5t-23 -18.5q-15 -21 -15 -44
q0 -20 11 -39t28 -28q43 -24 138 -24q93 0 135.5 31t49.5 104zM595 558v-158h-189v158h189z" />
    <glyph glyph-name="Agrave" unicode="&#xc0;" horiz-adv-x="894" 
d="M-7 0l332 744h248l328 -744h-230l-60 147h-329l-60 -147h-229zM404 284h86q41 0 71 -3q-14 27 -30 64l-37 92q-29 74 -45 123h-4q-20 -61 -45 -123l-37 -92q-12 -29 -29 -64q30 3 70 3zM250 928h158l138 -147h-140z" />
    <glyph glyph-name="Aacute" unicode="&#xc1;" horiz-adv-x="894" 
d="M-7 0l332 744h248l328 -744h-230l-60 147h-329l-60 -147h-229zM404 284h86q41 0 71 -3q-14 27 -30 64l-37 92q-29 74 -45 123h-4q-20 -61 -45 -123l-37 -92q-12 -29 -29 -64q30 3 70 3zM349 781l138 147h158l-157 -147h-139z" />
    <glyph glyph-name="Acircumflex" unicode="&#xc2;" horiz-adv-x="894" 
d="M-7 0l332 744h248l328 -744h-230l-60 147h-329l-60 -147h-229zM404 284h86q41 0 71 -3q-14 27 -30 64l-37 92q-29 74 -45 123h-4q-20 -61 -45 -123l-37 -92q-12 -29 -29 -64q30 3 70 3zM229 779l101 150h253l83 -150h-143l-31 58q-16 28 -30 64h-3q-20 -38 -38 -64
l-39 -58h-153z" />
    <glyph glyph-name="Atilde" unicode="&#xc3;" horiz-adv-x="894" 
d="M-7 0l332 744h248l328 -744h-230l-60 147h-329l-60 -147h-229zM404 284h86q41 0 71 -3q-14 27 -30 64l-37 92q-29 74 -45 123h-4q-20 -61 -45 -123l-37 -92q-12 -29 -29 -64q30 3 70 3zM268 783l-59 77q62 64 143 64q34 0 72 -13l48 -17q21 -8 45 -8q54 0 107 42l62 -74
q-66 -73 -166 -73q-28 0 -55 9l-54 19q-27 9 -52 9q-19 0 -34.5 -6t-56.5 -29z" />
    <glyph glyph-name="Adieresis" unicode="&#xc4;" horiz-adv-x="894" 
d="M-7 0l332 744h248l328 -744h-230l-60 147h-329l-60 -147h-229zM404 284h86q41 0 71 -3q-14 27 -30 64l-37 92q-29 74 -45 123h-4q-20 -61 -45 -123l-37 -92q-12 -29 -29 -64q30 3 70 3zM239 780v147h165v-147h-165zM490 780v147h165v-147h-165z" />
    <glyph glyph-name="Aring" unicode="&#xc5;" horiz-adv-x="894" 
d="M-7 0l332 744h248l328 -744h-230l-60 147h-329l-60 -147h-229zM404 284h86q41 0 71 -3q-14 27 -30 64l-37 92q-29 74 -45 123h-4q-20 -61 -45 -123l-37 -92q-12 -29 -29 -64q30 3 70 3zM453 950q80 0 117.5 -23t37.5 -73t-37.5 -73t-117.5 -23q-57 0 -84 5t-48 19
q-35 23 -35 72q0 64 62 85q29 11 105 11zM445 882q-46 0 -62.5 -6t-16.5 -23t16.5 -23t62.5 -6q50 0 65 5.5t15 24.5q0 17 -16 22.5t-64 5.5z" />
    <glyph glyph-name="AE" unicode="&#xc6;" horiz-adv-x="1263" 
d="M5 0l338 744h892v-160h-451q-15 0 -26 4q4 -11 4 -26v-59q0 -15 -4 -26q11 4 26 4h376v-163h-376q-15 0 -26 4q4 -11 4 -26v-108q0 -16 -4 -27q11 4 26 4h451v-165h-675v158q0 16 4 27q-11 -4 -26 -4h-231l-76 -181h-226zM427 308h111q15 0 26 -4q-4 11 -4 26v251h-85
l-89 -211q-12 -29 -31 -65q31 3 72 3z" />
    <glyph glyph-name="Ccedilla" unicode="&#xc7;" horiz-adv-x="951" 
d="M512 -15l-3 -9q-8 -24 -17 -39q61 1 86 -12q41 -21 41 -61q0 -21 -14 -44.5t-34 -35.5q-43 -25 -136 -25q-45 0 -103 9l25 71q10 -2 79 -6q51 -2 54 26q3 27 -48 27h-48l37 101q-121 6 -193 44q-206 106 -206 342q0 99 40.5 179t117.5 132q110 75 290 75q206 0 333 -103
q38 -31 60 -62t40 -81l-216 -69q-37 75 -65 107q-53 62 -154 62q-98 0 -150 -62q-56 -67 -56 -166q0 -118 57.5 -183t162.5 -65q85 0 135.5 46.5t76.5 148.5l222 -54q-7 -56 -20 -87.5t-44 -65.5q-119 -134 -350 -140z" />
    <glyph glyph-name="Egrave" unicode="&#xc8;" horiz-adv-x="814" 
d="M51 0v744h731v-160h-522v-84q0 -15 -3 -26q11 4 26 4h414v-160h-437v-136q0 -15 -3 -26q10 4 26 4h502v-160h-734zM209 928h158l138 -147h-139z" />
    <glyph glyph-name="Eacute" unicode="&#xc9;" horiz-adv-x="814" 
d="M51 0v744h731v-160h-522v-84q0 -15 -3 -26q11 4 26 4h414v-160h-437v-136q0 -15 -3 -26q10 4 26 4h502v-160h-734zM308 781l138 147h158l-156 -147h-140z" />
    <glyph glyph-name="Ecircumflex" unicode="&#xca;" horiz-adv-x="814" 
d="M51 0v744h731v-160h-522v-84q0 -15 -3 -26q11 4 26 4h414v-160h-437v-136q0 -15 -3 -26q10 4 26 4h502v-160h-734zM188 779l101 150h253l83 -150h-142l-32 58q-18 35 -30 64h-2q-16 -29 -38 -64l-40 -58h-153z" />
    <glyph glyph-name="Edieresis" unicode="&#xcb;" horiz-adv-x="814" 
d="M51 0v744h731v-160h-522v-84q0 -15 -3 -26q11 4 26 4h414v-160h-437v-136q0 -15 -3 -26q10 4 26 4h502v-160h-734zM199 780v147h165v-147h-165zM450 780v147h165v-147h-165z" />
    <glyph glyph-name="Igrave" unicode="&#xcc;" horiz-adv-x="315" 
d="M53 0v744h209v-744h-209zM-40 928h158l138 -147h-140z" />
    <glyph glyph-name="Iacute" unicode="&#xcd;" horiz-adv-x="315" 
d="M53 0v744h209v-744h-209zM59 781l138 147h158l-156 -147h-140z" />
    <glyph glyph-name="Icircumflex" unicode="&#xce;" horiz-adv-x="315" 
d="M53 0v744h209v-744h-209zM-61 779l101 150h253l83 -150h-143l-31 58q-18 35 -30 64h-3q-15 -30 -38 -64l-39 -58h-153z" />
    <glyph glyph-name="Idieresis" unicode="&#xcf;" horiz-adv-x="315" 
d="M53 0v744h209v-744h-209zM-50 780v147h165v-147h-165zM201 780v147h165v-147h-165z" />
    <glyph glyph-name="Eth" unicode="&#xd0;" horiz-adv-x="974" 
d="M8 326v94h62q15 0 26 -4q-4 11 -4 26v302h456q212 0 310 -102q45 -49 73 -123.5t28 -147.5q0 -85 -33 -160.5t-93 -128.5q-94 -82 -255 -82h-486v304q0 15 4 26q-11 -4 -26 -4h-62zM409 420v-94h-85q-16 0 -27 4q4 -11 4 -26v-149l228 -1q94 0 149 58t55 157
q0 98 -63 161q-56 56 -138 56h-208q-12 0 -27 4q4 -11 4 -26v-122q0 -15 -4 -26q11 4 27 4h85z" />
    <glyph glyph-name="Ntilde" unicode="&#xd1;" horiz-adv-x="935" 
d="M51 0v744h227l306 -383q43 -53 88 -117l4 1q-5 77 -5 146v353h209v-744h-237l-296 369q-54 68 -88 118l-4 -2q5 -62 5 -146v-339h-209zM289 783l-60 77q64 64 144 64q34 0 72 -13l47 -17q23 -8 46 -8q55 0 106 42l63 -74q-66 -73 -166 -73q-28 0 -55 9l-54 19
q-27 9 -53 9q-18 0 -33.5 -6t-56.5 -29z" />
    <glyph glyph-name="Ograve" unicode="&#xd2;" horiz-adv-x="1005" 
d="M516 759q216 0 345 -112q59 -52 85.5 -116t26.5 -158t-38 -172.5t-107 -128.5q-64 -46 -142 -66.5t-194 -20.5q-219 0 -339.5 103t-120.5 290q0 176 130.5 278.5t353.5 102.5zM504 612q-110 0 -169 -62q-64 -64 -64 -171q0 -112 64.5 -181t169.5 -69q53 0 101.5 21
t77.5 56q50 57 50 164q0 115 -60.5 178.5t-169.5 63.5zM305 928h158l138 -147h-140z" />
    <glyph glyph-name="Oacute" unicode="&#xd3;" horiz-adv-x="1005" 
d="M516 759q216 0 345 -112q59 -52 85.5 -116t26.5 -158t-38 -172.5t-107 -128.5q-64 -46 -142 -66.5t-194 -20.5q-219 0 -339.5 103t-120.5 290q0 176 130.5 278.5t353.5 102.5zM504 612q-110 0 -169 -62q-64 -64 -64 -171q0 -112 64.5 -181t169.5 -69q53 0 101.5 21
t77.5 56q50 57 50 164q0 115 -60.5 178.5t-169.5 63.5zM404 781l138 147h158l-157 -147h-139z" />
    <glyph glyph-name="Ocircumflex" unicode="&#xd4;" horiz-adv-x="1005" 
d="M516 759q216 0 345 -112q59 -52 85.5 -116t26.5 -158t-38 -172.5t-107 -128.5q-64 -46 -142 -66.5t-194 -20.5q-219 0 -339.5 103t-120.5 290q0 176 130.5 278.5t353.5 102.5zM504 612q-110 0 -169 -62q-64 -64 -64 -171q0 -112 64.5 -181t169.5 -69q53 0 101.5 21
t77.5 56q50 57 50 164q0 115 -60.5 178.5t-169.5 63.5zM284 779l101 150h253l83 -150h-142l-32 58q-18 35 -30 64h-2q-17 -31 -39 -64l-39 -58h-153z" />
    <glyph glyph-name="Otilde" unicode="&#xd5;" horiz-adv-x="1005" 
d="M516 759q216 0 345 -112q59 -52 85.5 -116t26.5 -158t-38 -172.5t-107 -128.5q-64 -46 -142 -66.5t-194 -20.5q-219 0 -339.5 103t-120.5 290q0 176 130.5 278.5t353.5 102.5zM504 612q-110 0 -169 -62q-64 -64 -64 -171q0 -112 64.5 -181t169.5 -69q53 0 101.5 21
t77.5 56q50 57 50 164q0 115 -60.5 178.5t-169.5 63.5zM323 783l-59 77q62 64 143 64q34 0 72 -13l48 -17q21 -8 45 -8q54 0 107 42l62 -74q-66 -73 -166 -73q-28 0 -55 9l-54 19q-25 9 -52 9q-19 0 -34.5 -6t-56.5 -29z" />
    <glyph glyph-name="Odieresis" unicode="&#xd6;" horiz-adv-x="1005" 
d="M516 759q216 0 345 -112q59 -52 85.5 -116t26.5 -158t-38 -172.5t-107 -128.5q-64 -46 -142 -66.5t-194 -20.5q-219 0 -339.5 103t-120.5 290q0 176 130.5 278.5t353.5 102.5zM504 612q-110 0 -169 -62q-64 -64 -64 -171q0 -112 64.5 -181t169.5 -69q53 0 101.5 21
t77.5 56q50 57 50 164q0 115 -60.5 178.5t-169.5 63.5zM295 780v147h165v-147h-165zM545 780v147h165v-147h-165z" />
    <glyph glyph-name="multiply" unicode="&#xd7;" horiz-adv-x="744" 
d="M195 668l177 -177l177 177l118 -119l-161 -161q-9 -10 -21 -16q12 -6 21 -16l161 -161l-118 -119l-177 177l-177 -177l-119 119l161 161q11 11 21 16q-10 5 -21 16l-161 161z" />
    <glyph glyph-name="Oslash" unicode="&#xd8;" horiz-adv-x="1008" 
d="M773 710l42 42h140l-97 -97q34 -32 49.5 -52.5t29.5 -50.5q39 -83 39 -179t-39 -175.5t-110 -129.5q-58 -41 -147 -64t-190 -23q-153 0 -257 54l-43 -43h-145l100 100q-61 62 -87.5 128t-26.5 153q0 180 132 285t359 105q138 0 251 -53zM347 289l261 258q13 13 33 25
q-57 42 -132 42q-107 0 -171 -65t-64 -174q0 -72 34 -131q16 24 39 45zM658 455l-241 -238q-25 -25 -51 -43q44 -25 72.5 -33.5t63.5 -8.5q107 0 170 65t63 176q0 62 -32 133q-21 -28 -45 -51z" />
    <glyph glyph-name="Ugrave" unicode="&#xd9;" horiz-adv-x="935" 
d="M47 744h209v-425q0 -99 51.5 -141.5t170.5 -42.5q114 0 165 67q30 41 30 117v425h209v-425q0 -174 -108 -259q-105 -83 -303 -83q-190 0 -309 79q-60 40 -87.5 99t-27.5 148v441zM271 928h157l138 -147h-139z" />
    <glyph glyph-name="Uacute" unicode="&#xda;" horiz-adv-x="935" 
d="M47 744h209v-425q0 -99 51.5 -141.5t170.5 -42.5q114 0 165 67q30 41 30 117v425h209v-425q0 -174 -108 -259q-105 -83 -303 -83q-190 0 -309 79q-60 40 -87.5 99t-27.5 148v441zM369 781l138 147h158l-156 -147h-140z" />
    <glyph glyph-name="Ucircumflex" unicode="&#xdb;" horiz-adv-x="935" 
d="M47 744h209v-425q0 -99 51.5 -141.5t170.5 -42.5q114 0 165 67q30 41 30 117v425h209v-425q0 -174 -108 -259q-105 -83 -303 -83q-190 0 -309 79q-60 40 -87.5 99t-27.5 148v441zM249 779l102 150h253l82 -150h-142l-32 58q-18 35 -30 64h-2q-20 -38 -38 -64l-39 -58
h-154z" />
    <glyph glyph-name="Udieresis" unicode="&#xdc;" horiz-adv-x="935" 
d="M47 744h209v-425q0 -99 51.5 -141.5t170.5 -42.5q114 0 165 67q30 41 30 117v425h209v-425q0 -174 -108 -259q-105 -83 -303 -83q-190 0 -309 79q-60 40 -87.5 99t-27.5 148v441zM260 780v147h165v-147h-165zM511 780v147h165v-147h-165z" />
    <glyph glyph-name="Yacute" unicode="&#xdd;" horiz-adv-x="917" 
d="M-2 744h252l168 -283q24 -40 39 -74h3q17 33 40 73l176 284h243l-355 -535v-209h-217v215zM360 781l139 147h157l-156 -147h-140z" />
    <glyph glyph-name="Thorn" unicode="&#xde;" horiz-adv-x="873" 
d="M160 744h168v-95q0 -15 -4 -26q11 4 26 4h100q76 0 119.5 -8.5t77.5 -30.5q100 -66 100 -201q0 -116 -81 -183q-63 -53 -185 -53h-131q-15 0 -26 4q4 -11 4 -26v-129h-168v744zM455 491h-105q-15 0 -26 4q4 -16 4 -26v-167q0 -10 -4 -26q11 4 26 4h107q125 0 125 105
q0 55 -31 80.5t-96 25.5z" />
    <glyph glyph-name="germandbls" unicode="&#xdf;" horiz-adv-x="783" 
d="M47 0v516q0 141 89 195q69 43 257 43q153 0 225 -33q44 -19 71.5 -63t27.5 -94q0 -105 -95 -138v-4q65 -16 101 -63t36 -117q0 -55 -23.5 -107.5t-63.5 -84.5q-35 -29 -88 -46.5t-105 -17.5q-49 0 -125 16q-28 7 -56 17v176q89 -53 145 -53q51 0 83 28t32 72
q0 30 -16.5 57.5t-41.5 39.5q-33 15 -116 15h-58v126h56q72 -1 103 16t31 57q0 42 -30 59.5t-103 17.5q-62 0 -95 -18q-22 -12 -31 -31t-9 -55v-526h-201z" />
    <glyph glyph-name="agrave" unicode="&#xe0;" horiz-adv-x="760" 
d="M156 402l-85 106q123 58 283 65q158 8 249 -37.5t91 -131.5v-174q0 -56 13 -73t58 -17l-13 -140h-122q-64 0 -87 15.5t-31 62.5q-112 -85 -258 -85q-88 0 -147 33q-37 20 -61 57.5t-24 74.5t19.5 72.5t50.5 56.5q50 33 138 49q44 7 145 13q92 4 115 18q14 7 14 21
q0 58 -136 58q-107 0 -212 -44zM505 197v39q0 25 3 43q-76 -28 -180 -46q-53 -8 -77 -26t-22 -47q3 -44 79 -44q70 0 137 38q25 13 60 43zM183 748h158l138 -148h-140z" />
    <glyph glyph-name="aacute" unicode="&#xe1;" horiz-adv-x="760" 
d="M156 402l-85 106q123 58 283 65q158 8 249 -37.5t91 -131.5v-174q0 -56 13 -73t58 -17l-13 -140h-122q-64 0 -87 15.5t-31 62.5q-112 -85 -258 -85q-88 0 -147 33q-37 20 -61 57.5t-24 74.5t19.5 72.5t50.5 56.5q50 33 138 49q44 7 145 13q92 4 115 18q14 7 14 21
q0 58 -136 58q-107 0 -212 -44zM505 197v39q0 25 3 43q-76 -28 -180 -46q-53 -8 -77 -26t-22 -47q3 -44 79 -44q70 0 137 38q25 13 60 43zM282 600l138 148h158l-156 -148h-140z" />
    <glyph glyph-name="acircumflex" unicode="&#xe2;" horiz-adv-x="760" 
d="M156 402l-85 106q123 58 283 65q158 8 249 -37.5t91 -131.5v-174q0 -56 13 -73t58 -17l-13 -140h-122q-64 0 -87 15.5t-31 62.5q-112 -85 -258 -85q-88 0 -147 33q-37 20 -61 57.5t-24 74.5t19.5 72.5t50.5 56.5q50 33 138 49q44 7 145 13q92 4 115 18q14 7 14 21
q0 58 -136 58q-107 0 -212 -44zM505 197v39q0 25 3 43q-76 -28 -180 -46q-53 -8 -77 -26t-22 -47q3 -44 79 -44q70 0 137 38q25 13 60 43zM162 598l101 150h253l83 -150h-143l-31 58q-18 35 -30 64h-3q-15 -30 -38 -64l-39 -58h-153z" />
    <glyph glyph-name="atilde" unicode="&#xe3;" horiz-adv-x="760" 
d="M156 402l-85 106q123 58 283 65q158 8 249 -37.5t91 -131.5v-174q0 -56 13 -73t58 -17l-13 -140h-122q-64 0 -87 15.5t-31 62.5q-112 -85 -258 -85q-88 0 -147 33q-37 20 -61 57.5t-24 74.5t19.5 72.5t50.5 56.5q50 33 138 49q44 7 145 13q92 4 115 18q14 7 14 21
q0 58 -136 58q-107 0 -212 -44zM505 197v39q0 25 3 43q-76 -28 -180 -46q-53 -8 -77 -26t-22 -47q3 -44 79 -44q70 0 137 38q25 13 60 43zM201 602l-59 77q62 64 143 64q36 0 72 -13l48 -17q23 -8 45 -8q54 0 107 42l62 -74q-66 -73 -166 -73q-27 0 -55 9l-54 19
q-25 9 -52 9q-19 0 -34.5 -6t-56.5 -29z" />
    <glyph glyph-name="adieresis" unicode="&#xe4;" horiz-adv-x="760" 
d="M156 402l-85 106q123 58 283 65q158 8 249 -37.5t91 -131.5v-174q0 -56 13 -73t58 -17l-13 -140h-122q-64 0 -87 15.5t-31 62.5q-112 -85 -258 -85q-88 0 -147 33q-37 20 -61 57.5t-24 74.5t19.5 72.5t50.5 56.5q50 33 138 49q44 7 145 13q92 4 115 18q14 7 14 21
q0 58 -136 58q-107 0 -212 -44zM505 197v39q0 25 3 43q-76 -28 -180 -46q-53 -8 -77 -26t-22 -47q3 -44 79 -44q70 0 137 38q25 13 60 43zM172 600v147h165v-147h-165zM423 600v147h165v-147h-165z" />
    <glyph glyph-name="aring" unicode="&#xe5;" horiz-adv-x="760" 
d="M156 402l-85 106q123 58 283 65q158 8 249 -37.5t91 -131.5v-174q0 -56 13 -73t58 -17l-13 -140h-122q-64 0 -87 15.5t-31 62.5q-112 -85 -258 -85q-88 0 -147 33q-37 20 -61 57.5t-24 74.5t19.5 72.5t50.5 56.5q50 33 138 49q44 7 145 13q92 4 115 18q14 7 14 21
q0 58 -136 58q-107 0 -212 -44zM505 197v39q0 25 3 43q-76 -28 -180 -46q-53 -8 -77 -26t-22 -47q3 -44 79 -44q70 0 137 38q25 13 60 43zM386 769q80 0 117.5 -23t37.5 -73t-37.5 -73t-117.5 -23q-57 0 -84 5t-48 19q-35 23 -35 72q0 64 62 85q29 11 105 11zM378 701
q-46 0 -62.5 -6t-16.5 -23t16.5 -23t62.5 -6q50 0 65 5.5t15 24.5q0 17 -16 22.5t-64 5.5z" />
    <glyph glyph-name="ae" unicode="&#xe6;" horiz-adv-x="1225" 
d="M396 351h109q3 31 0 43q-12 48 -132 48q-83 0 -221 -29l-82 106q144 55 333 55q69 0 118 -10.5t112 -38.5q80 54 216 54q250 0 335 -180q34 -74 31 -172h-473q-21 0 -45 5q10 -56 50.5 -87t103.5 -31q74 0 128 51h219q-14 -32 -30 -51.5t-45 -41.5q-54 -42 -130.5 -65.5
t-157.5 -23.5q-70 0 -125.5 19t-120.5 64q-136 -85 -303 -85q-80 0 -115.5 7.5t-71.5 32.5q-75 53 -75 132q0 51 32 94t90 68q81 36 250 36zM503 232h-117q-90 0 -123 -16q-39 -20 -37 -58q2 -29 24 -43q22 -13 76 -13q77 0 137 25q32 13 58 43q-10 17 -18 62zM756 351h199
q21 0 45 -5q-10 53 -49 85t-96 32q-58 0 -101.5 -31.5t-59.5 -85.5q32 5 62 5z" />
    <glyph glyph-name="ccedilla" unicode="&#xe7;" horiz-adv-x="767" 
d="M421 -15l-3 -9q-5 -15 -17 -39q59 1 86 -12q41 -21 41 -61q0 -22 -14 -45t-34 -35q-43 -25 -136 -25q-45 0 -103 9l24 71q11 -2 80 -6q51 -2 54 26q3 27 -48 27h-48l37 102q-153 17 -232.5 93t-79.5 205q0 130 102.5 208.5t271.5 78.5q158 0 253 -77q59 -48 96 -137
l-200 -30q-23 62 -59.5 90t-93.5 28q-81 0 -123 -54q-37 -50 -37 -114q0 -63 37 -114q42 -54 123 -54q58 0 94 28t59 90l200 -30q-28 -67 -63.5 -107.5t-91.5 -67.5q-72 -35 -175 -39z" />
    <glyph glyph-name="egrave" unicode="&#xe8;" horiz-adv-x="783" 
d="M761 230h-479q-20 0 -42 5q10 -63 47 -90.5t111 -27.5q56 0 87 17.5t49 59.5l200 -42q-50 -80 -142 -123.5t-212 -43.5q-157 0 -256.5 83.5t-99.5 215.5q0 68 36.5 130.5t97.5 99.5q98 59 235 59q198 0 294 -118q40 -47 57 -99.5t17 -125.5zM297 346h190q34 0 59 -5
q-13 45 -27 64q-40 53 -127 53q-121 0 -155 -117q25 5 60 5zM194 748h158l138 -148h-140z" />
    <glyph glyph-name="eacute" unicode="&#xe9;" horiz-adv-x="783" 
d="M761 230h-479q-20 0 -42 5q10 -63 47 -90.5t111 -27.5q56 0 87 17.5t49 59.5l200 -42q-50 -80 -142 -123.5t-212 -43.5q-157 0 -256.5 83.5t-99.5 215.5q0 68 36.5 130.5t97.5 99.5q98 59 235 59q198 0 294 -118q40 -47 57 -99.5t17 -125.5zM297 346h190q34 0 59 -5
q-13 45 -27 64q-40 53 -127 53q-121 0 -155 -117q25 5 60 5zM293 600l138 148h158l-156 -148h-140z" />
    <glyph glyph-name="ecircumflex" unicode="&#xea;" horiz-adv-x="783" 
d="M761 230h-479q-20 0 -42 5q10 -63 47 -90.5t111 -27.5q56 0 87 17.5t49 59.5l200 -42q-50 -80 -142 -123.5t-212 -43.5q-157 0 -256.5 83.5t-99.5 215.5q0 68 36.5 130.5t97.5 99.5q98 59 235 59q198 0 294 -118q40 -47 57 -99.5t17 -125.5zM297 346h190q34 0 59 -5
q-13 45 -27 64q-40 53 -127 53q-121 0 -155 -117q25 5 60 5zM173 598l101 150h253l83 -150h-143l-31 58q-18 35 -30 64h-3q-15 -30 -38 -64l-39 -58h-153z" />
    <glyph glyph-name="edieresis" unicode="&#xeb;" horiz-adv-x="783" 
d="M761 230h-479q-20 0 -42 5q10 -63 47 -90.5t111 -27.5q56 0 87 17.5t49 59.5l200 -42q-50 -80 -142 -123.5t-212 -43.5q-157 0 -256.5 83.5t-99.5 215.5q0 68 36.5 130.5t97.5 99.5q98 59 235 59q198 0 294 -118q40 -47 57 -99.5t17 -125.5zM297 346h190q34 0 59 -5
q-13 45 -27 64q-40 53 -127 53q-121 0 -155 -117q25 5 60 5zM183 600v147h165v-147h-165zM434 600v147h165v-147h-165z" />
    <glyph glyph-name="igrave" unicode="&#xec;" horiz-adv-x="284" 
d="M48 0v558h189v-558h-189zM-55 748h158l138 -148h-140z" />
    <glyph glyph-name="iacute" unicode="&#xed;" horiz-adv-x="284" 
d="M47 0v558h189v-558h-189zM43 600l138 148h158l-156 -148h-140z" />
    <glyph glyph-name="icircumflex" unicode="&#xee;" horiz-adv-x="284" 
d="M48 0v558h189v-558h-189zM-76 598l101 150h253l83 -150h-143l-31 58q-18 35 -30 64h-3q-15 -30 -38 -64l-39 -58h-153z" />
    <glyph glyph-name="idieresis" unicode="&#xef;" horiz-adv-x="284" 
d="M48 0v558h189v-558h-189zM-66 600v147h165v-147h-165zM185 600v147h165v-147h-165z" />
    <glyph glyph-name="eth" unicode="&#xf0;" horiz-adv-x="809" 
d="M340 727l140 89l39 -54l-47 -30q-30 -18 -54 -28v-3q104 -41 166 -119q42 -52 66 -130t24 -161q0 -85 -17.5 -138.5t-57.5 -93.5q-74 -74 -194 -74q-121 0 -196 74t-75 194q0 165 113 242q34 23 61.5 31.5t69.5 8.5q48 0 94 -29l3 4q-35 45 -69.5 70.5t-84.5 44.5
l-142 -90l-40 55l49 30q28 18 56 29l-1 3q-22 5 -38 8q-12 2 -62 9l40 85q73 -5 157 -27zM404 429q-55 0 -84.5 -42t-29.5 -120q0 -83 29.5 -126.5t85.5 -43.5q55 0 84 44t29 126q0 78 -29.5 120t-84.5 42z" />
    <glyph glyph-name="ntilde" unicode="&#xf1;" horiz-adv-x="736" 
d="M49 0v558h188v-34q0 -18 -5 -38l3 -1q93 80 206 80q123 0 187 -51.5t64 -149.5v-364h-189v271q0 94 -38 122q-32 26 -82 26q-59 0 -102.5 -36t-43.5 -85v-298h-188zM189 602l-59 77q62 64 143 64q36 0 72 -13l48 -17q23 -8 45 -8q54 0 107 42l62 -74q-66 -73 -166 -73
q-27 0 -55 9l-54 19q-25 9 -52 9q-19 0 -34.5 -6t-56.5 -29z" />
    <glyph glyph-name="ograve" unicode="&#xf2;" horiz-adv-x="809" 
d="M413 573q154 0 253 -70q118 -84 118 -226q0 -64 -32 -123t-86 -97q-56 -38 -121.5 -55t-159.5 -17q-155 0 -251 68q-51 36 -80.5 95.5t-29.5 125.5q0 153 114 225q52 34 126.5 54t148.5 20zM401 448q-73 0 -116.5 -47t-43.5 -127q0 -46 9 -72.5t34 -51.5q43 -43 117 -43
q79 0 123 45t44 126q0 82 -43.5 126t-123.5 44zM207 748h158l138 -148h-140z" />
    <glyph glyph-name="oacute" unicode="&#xf3;" horiz-adv-x="809" 
d="M413 573q154 0 253 -70q118 -84 118 -226q0 -64 -32 -123t-86 -97q-56 -38 -121.5 -55t-159.5 -17q-155 0 -251 68q-51 36 -80.5 95.5t-29.5 125.5q0 153 114 225q52 34 126.5 54t148.5 20zM401 448q-73 0 -116.5 -47t-43.5 -127q0 -46 9 -72.5t34 -51.5q43 -43 117 -43
q79 0 123 45t44 126q0 82 -43.5 126t-123.5 44zM305 600l138 148h158l-156 -148h-140z" />
    <glyph glyph-name="ocircumflex" unicode="&#xf4;" horiz-adv-x="809" 
d="M413 573q154 0 253 -70q118 -84 118 -226q0 -64 -32 -123t-86 -97q-56 -38 -121.5 -55t-159.5 -17q-155 0 -251 68q-51 36 -80.5 95.5t-29.5 125.5q0 153 114 225q52 34 126.5 54t148.5 20zM401 448q-73 0 -116.5 -47t-43.5 -127q0 -46 9 -72.5t34 -51.5q43 -43 117 -43
q79 0 123 45t44 126q0 82 -43.5 126t-123.5 44zM186 598l101 150h253l83 -150h-143l-31 58q-18 35 -30 64h-3q-15 -30 -38 -64l-39 -58h-153z" />
    <glyph glyph-name="otilde" unicode="&#xf5;" horiz-adv-x="809" 
d="M413 573q154 0 253 -70q118 -84 118 -226q0 -64 -32 -123t-86 -97q-56 -38 -121.5 -55t-159.5 -17q-155 0 -251 68q-51 36 -80.5 95.5t-29.5 125.5q0 153 114 225q52 34 126.5 54t148.5 20zM401 448q-73 0 -116.5 -47t-43.5 -127q0 -46 9 -72.5t34 -51.5q43 -43 117 -43
q79 0 123 45t44 126q0 82 -43.5 126t-123.5 44zM224 602l-59 77q62 64 143 64q36 0 72 -13l48 -17q23 -8 45 -8q54 0 107 42l62 -74q-66 -73 -166 -73q-27 0 -55 9l-54 19q-25 9 -52 9q-19 0 -34.5 -6t-56.5 -29z" />
    <glyph glyph-name="odieresis" unicode="&#xf6;" horiz-adv-x="809" 
d="M413 573q154 0 253 -70q118 -84 118 -226q0 -64 -32 -123t-86 -97q-56 -38 -121.5 -55t-159.5 -17q-155 0 -251 68q-51 36 -80.5 95.5t-29.5 125.5q0 153 114 225q52 34 126.5 54t148.5 20zM401 448q-73 0 -116.5 -47t-43.5 -127q0 -46 9 -72.5t34 -51.5q43 -43 117 -43
q79 0 123 45t44 126q0 82 -43.5 126t-123.5 44zM196 600v147h165v-147h-165zM447 600v147h165v-147h-165z" />
    <glyph glyph-name="divide" unicode="&#xf7;" horiz-adv-x="744" 
d="M373 708q43 0 73 -30t30 -73t-30.5 -73.5t-73.5 -30.5q-42 0 -72.5 30.5t-30.5 73.5t30.5 73t73.5 30zM373 244q43 0 73 -30t30 -73t-30.5 -73.5t-73.5 -30.5q-42 0 -72.5 30.5t-30.5 73.5t30.5 73t73.5 30zM78 452h589v-160h-589v160z" />
    <glyph glyph-name="oslash" unicode="&#xf8;" horiz-adv-x="811" 
d="M605 539l35 35h130l-69 -69q-11 -11 -21 -16q106 -87 106 -212q0 -64 -32 -123t-86 -96q-56 -39 -121 -55.5t-160 -16.5q-101 0 -181 30l-31 -31h-134l65 63q11 11 21 16q-48 39 -74.5 94t-26.5 116q0 151 114 225q52 33 127.5 53.5t147.5 20.5q108 0 190 -34zM307 245
l139 138q24 23 51 43q-42 21 -94 21q-73 0 -116.5 -47t-43.5 -127q0 -48 13 -84q24 31 51 56zM503 310l-141 -140q-23 -23 -49 -42q42 -21 90 -21q79 0 123 45t44 125q0 50 -17 89q-19 -27 -50 -56z" />
    <glyph glyph-name="ugrave" unicode="&#xf9;" horiz-adv-x="736" 
d="M687 558v-558h-188v34q0 18 5 38l-3 1q-93 -80 -206 -80q-123 0 -187 51.5t-64 149.5v364h189v-271q0 -94 38 -122q34 -26 82 -26q59 0 102.5 36t43.5 85v298h188zM171 748h158l138 -148h-140z" />
    <glyph glyph-name="uacute" unicode="&#xfa;" horiz-adv-x="736" 
d="M687 558v-558h-188v34q0 18 5 38l-3 1q-93 -80 -206 -80q-123 0 -187 51.5t-64 149.5v364h189v-271q0 -94 38 -122q34 -26 82 -26q59 0 102.5 36t43.5 85v298h188zM270 600l138 148h158l-156 -148h-140z" />
    <glyph glyph-name="ucircumflex" unicode="&#xfb;" horiz-adv-x="736" 
d="M687 558v-558h-188v34q0 18 5 38l-3 1q-93 -80 -206 -80q-123 0 -187 51.5t-64 149.5v364h189v-271q0 -94 38 -122q34 -26 82 -26q59 0 102.5 36t43.5 85v298h188zM150 598l101 150h253l83 -150h-143l-31 58q-18 35 -30 64h-3q-15 -30 -38 -64l-39 -58h-153z" />
    <glyph glyph-name="udieresis" unicode="&#xfc;" horiz-adv-x="736" 
d="M687 558v-558h-188v34q0 18 5 38l-3 1q-93 -80 -206 -80q-123 0 -187 51.5t-64 149.5v364h189v-271q0 -94 38 -122q34 -26 82 -26q59 0 102.5 36t43.5 85v298h188zM160 600v147h165v-147h-165zM411 600v147h165v-147h-165z" />
    <glyph glyph-name="yacute" unicode="&#xfd;" horiz-adv-x="682" 
d="M-4 558h220l77 -175q24 -54 44 -112h3q20 55 46 111l81 176h220l-283 -564q-40 -79 -80 -107q-55 -37 -139 -37q-68 0 -141 35l73 142q39 -27 74 -27q36 0 51 59zM243 600l138 148h158l-157 -148h-139z" />
    <glyph glyph-name="thorn" unicode="&#xfe;" horiz-adv-x="788" 
d="M294 744v-135q0 -73 -7 -146l5 -2q12 28 41 54q46 40 126 40q45 0 88.5 -24t71.5 -64q53 -76 53 -203q0 -121 -55 -195.5t-149 -81.5q-118 -9 -176 96l-5 -1q7 -69 7 -137v-128h-155v927h155zM402 432q-54 0 -83.5 -42.5t-29.5 -121.5t29 -121t84 -42t84 41.5t29 120.5
q0 80 -29 122.5t-84 42.5z" />
    <glyph glyph-name="ydieresis" unicode="&#xff;" horiz-adv-x="682" 
d="M-4 558h220l77 -175q24 -54 44 -112h3q20 55 46 111l81 176h220l-283 -564q-40 -79 -80 -107q-55 -37 -139 -37q-68 0 -141 35l73 142q39 -27 74 -27q36 0 51 59zM133 600v147h165v-147h-165zM384 600v147h165v-147h-165z" />
    <glyph glyph-name="dotlessi" unicode="&#x131;" horiz-adv-x="284" 
d="M48 0v558h189v-558h-189z" />
    <glyph glyph-name="Lslash" unicode="&#x141;" horiz-adv-x="721" 
d="M7 267v94l84 34v349h209v-214q0 -40 -3 -70q21 11 57 26l54 21v-94l-108 -42v-186q0 -15 -4 -26q11 4 27 4h388v-163h-620v235q0 41 3 71q-21 -12 -45 -22z" />
    <glyph glyph-name="lslash" unicode="&#x142;" horiz-adv-x="364" 
d="M358 512v-94l-81 -32v-386h-189v258q0 41 3 70q-21 -12 -44 -20l-40 -17v94l81 33v326h189v-199q0 -40 -3 -70q22 12 43 21z" />
    <glyph glyph-name="OE" unicode="&#x152;" horiz-adv-x="1289" 
d="M1258 744v-163h-467q-15 0 -26 4q4 -11 4 -26v-59q0 -15 -4 -26q11 4 26 4h384v-163h-384q-15 0 -26 4q4 -11 4 -26v-108q0 -15 -4 -26q11 4 26 4h469v-163h-855q-165 0 -274 111q-99 97 -99 255q0 102 39.5 185.5t108.5 127.5q101 65 284 65h794zM573 601h-85
q-71 0 -129 -40q-84 -57 -84 -187q0 -110 53.5 -169.5t152.5 -60.5h69q16 0 27 -4q-4 12 -4 27v434z" />
    <glyph glyph-name="oe" unicode="&#x153;" horiz-adv-x="1263" 
d="M1016 162h223q-50 -85 -144.5 -131t-216.5 -46q-137 0 -225 68q-42 -31 -101 -47q-78 -21 -177 -21q-152 0 -246 68q-49 36 -78 96t-29 125q0 153 112 225q51 34 124 54t145 20q83 0 149.5 -21.5t100.5 -58.5q30 37 93.5 58.5t144.5 21.5q195 0 292 -118
q39 -48 55.5 -101t16.5 -128h-464q-24 0 -41 5q9 -61 43.5 -88t102.5 -27q41 0 66.5 10t53.5 36zM384 448q-66 0 -105.5 -47.5t-39.5 -127.5q0 -45 8.5 -72t30.5 -52q40 -43 106 -43q79 0 123 45t44 126q0 78 -38 120q-47 51 -129 51zM805 346h182q33 0 57 -5q-12 44 -26 64
q-39 53 -123 53q-115 0 -149 -117q25 5 59 5z" />
    <glyph glyph-name="Scaron" unicode="&#x160;" horiz-adv-x="868" 
d="M6 220l228 49q27 -136 200 -136q91 0 132.5 16.5t41.5 53.5q0 23 -21 41q-26 24 -100 34l-162 21q-140 19 -207 66q-39 27 -61 67t-22 84q0 55 39 108.5t100 82.5q109 52 256 52q212 0 331 -110q29 -27 43.5 -53t26.5 -71l-225 -48q-20 70 -45 96q-41 43 -139 43
q-70 0 -107 -16q-47 -20 -50 -59q-3 -34 27 -52t108 -29l144 -20q132 -19 211 -68q38 -24 62 -67.5t24 -87.5q0 -51 -29 -98.5t-77 -76.5q-52 -31 -118 -44t-174 -13q-125 0 -190.5 13t-117.5 47t-81 73.5t-48 101.5zM217 928h139l33 -57q17 -30 32 -63q20 35 39 63l38 57
h153l-103 -147h-252z" />
    <glyph glyph-name="scaron" unicode="&#x161;" horiz-adv-x="736" 
d="M21 133l205 55q19 -44 55.5 -61.5t101.5 -13.5q92 6 95 44q1 13 -8 20.5t-32 13.5l-30 6l-30 6l-136 18q-103 14 -149 44q-26 16 -42.5 46t-16.5 62q0 85 94.5 142.5t234.5 57.5q116 0 200 -43q36 -18 60 -43t50 -69l-195 -42q-29 41 -54 55.5t-66 14.5q-53 0 -76 -16
q-16 -14 -18 -30q-1 -16 16.5 -24.5t58.5 -13.5l83 -9q151 -15 226 -59q70 -44 70 -125q0 -37 -27 -77t-64 -59q-59 -30 -138 -39q-70 -9 -118 -9q-89 0 -141.5 9t-99.5 32q-33 17 -57 40t-52 67zM151 748h139l33 -58q21 -36 32 -62q14 25 39 62l38 58h153l-103 -147h-251z
" />
    <glyph glyph-name="Ydieresis" unicode="&#x178;" horiz-adv-x="917" 
d="M-2 744h252l168 -283q24 -40 39 -74h3q17 33 40 73l176 284h243l-355 -535v-209h-217v215zM251 780v147h165v-147h-165zM502 780v147h165v-147h-165z" />
    <glyph glyph-name="Zcaron" unicode="&#x17d;" horiz-adv-x="886" 
d="M32 0v137l372 357q50 49 98 88l-2 4q-70 -5 -131 -5h-329v163h795v-115l-386 -379q-48 -47 -97 -88l2 -4q56 5 130 5h370v-163h-822zM226 928h139l33 -57q17 -30 32 -63q20 35 39 63l38 57h153l-103 -147h-251z" />
    <glyph glyph-name="zcaron" unicode="&#x17e;" horiz-adv-x="667" 
d="M24 0v106l233 218q47 44 101 88l-2 4q-71 -5 -134 -5h-172v147h576v-123l-225 -208q-46 -42 -102 -88l1 -4q58 5 135 5h206v-140h-617zM116 748h139l33 -58q21 -36 32 -62q14 25 39 62l38 58h153l-103 -147h-251z" />
    <glyph glyph-name="florin" unicode="&#x192;" horiz-adv-x="434" 
d="M8 408v150h106q0 66 4 94t16 48q16 28 52 40t105 12q58 0 135 -14q1 0 15 -2l-19 -119q-43 10 -72 10q-49 0 -49 -49v-10q0 -6 -4 -14q11 4 26 4h104v-150h-102q-15 0 -25 4q3 -11 3 -26v-386h-189v386q0 15 4 26q-11 -4 -26 -4h-84z" />
    <glyph glyph-name="circumflex" unicode="&#x2c6;" 
d="M-218 598l101 150h253l83 -150h-143l-31 58q-18 35 -30 64h-3q-15 -30 -38 -64l-39 -58h-153z" />
    <glyph glyph-name="caron" unicode="&#x2c7;" 
d="M-217 748h139l33 -58q21 -36 32 -62q14 25 39 62l38 58h153l-103 -147h-251z" />
    <glyph glyph-name="breve" unicode="&#x2d8;" 
d="M61 753h116q-13 -73 -61 -116t-116 -43t-116 43t-61 116h116q3 -30 19.5 -48.5t41.5 -18.5t41.5 18.5t19.5 48.5z" />
    <glyph glyph-name="dotaccent" unicode="&#x2d9;" 
d="M-94 602v142h189v-142h-189z" />
    <glyph glyph-name="ring" unicode="&#x2da;" 
d="M6 769q80 0 117.5 -23t37.5 -73t-37.5 -73t-117.5 -23q-57 0 -84 5t-48 19q-35 23 -35 72q0 64 62 85q29 11 105 11zM-2 701q-46 0 -62.5 -6t-16.5 -23t16.5 -23t62.5 -6q50 0 65 5.5t15 24.5q0 17 -16 22.5t-64 5.5z" />
    <glyph glyph-name="ogonek" unicode="&#x2db;" 
d="M90 4v-15q-83 -36 -79 -89q4 -50 79 -54v-101h-23q-82 0 -121 42q-36 39 -36 91q0 73 80 126h100z" />
    <glyph glyph-name="tilde" unicode="&#x2dc;" 
d="M-180 602l-59 77q62 64 143 64q36 0 72 -13l48 -17q23 -8 45 -8q54 0 107 42l62 -74q-66 -73 -166 -73q-27 0 -55 9l-54 19q-25 9 -52 9q-19 0 -34.5 -6t-56.5 -29z" />
    <glyph glyph-name="hungarumlaut" unicode="&#x2dd;" 
d="M43 746l-167 -149h-101l105 149h163zM256 746l-167 -149h-101l105 149h163z" />
    <glyph glyph-name="endash" unicode="&#x2013;" horiz-adv-x="710" 
d="M21 245l22 140h644l-19 -140h-647z" />
    <glyph glyph-name="emdash" unicode="&#x2014;" horiz-adv-x="783" 
d="M16 245l22 140h719l-20 -140h-721z" />
    <glyph glyph-name="quoteleft" unicode="&#x2018;" horiz-adv-x="238" 
d="M212 591v-163h-186v149q0 57 22.5 92t84.5 75l59 -70q-29 -27 -38 -44t-10 -44q13 5 24 5h44z" />
    <glyph glyph-name="quoteright" unicode="&#x2019;" horiz-adv-x="238" 
d="M26 581v163h186v-149q0 -57 -22.5 -91.5t-84.5 -75.5l-59 70q29 27 38 44t10 44q-12 -5 -24 -5h-44z" />
    <glyph glyph-name="quotesinglbase" unicode="&#x201a;" horiz-adv-x="264" 
d="M43 0v163h186v-149q0 -57 -22 -91.5t-85 -75.5l-59 70q29 27 38 44t10 44q-12 -5 -24 -5h-44z" />
    <glyph glyph-name="quotedblleft" unicode="&#x201c;" horiz-adv-x="506" 
d="M468 591v-163h-186v149q0 57 22.5 92t84.5 75l59 -70q-29 -27 -38 -44t-10 -44q12 5 24 5h44zM223 591v-163h-186v149q0 57 22.5 92t84.5 75l59 -70q-29 -27 -38 -44t-10 -44q13 5 24 5h44z" />
    <glyph glyph-name="quotedblright" unicode="&#x201d;" horiz-adv-x="506" 
d="M37 581v163h186v-149q0 -57 -22.5 -91.5t-84.5 -75.5l-59 70q29 27 38 44t10 44q-13 -5 -24 -5h-44zM282 581v163h186v-149q0 -57 -22.5 -91.5t-84.5 -75.5l-59 70q29 27 38 44t10 44q-12 -5 -24 -5h-44z" />
    <glyph glyph-name="quotedblbase" unicode="&#x201e;" horiz-adv-x="496" 
d="M33 0v163h186v-149q0 -57 -22 -91.5t-85 -75.5l-59 70q29 27 38 44t10 44q-12 -5 -24 -5h-44zM278 0v163h186v-149q0 -57 -22 -91.5t-85 -75.5l-59 70q29 27 38 44t10 44q-12 -5 -24 -5h-44z" />
    <glyph glyph-name="dagger" unicode="&#x2020;" horiz-adv-x="705" 
d="M26 351v163h205q15 0 26 -4q-4 11 -4 26v208h199v-208q0 -15 -4 -26q11 4 26 4h206v-163h-206q-15 0 -26 4q4 -11 4 -26v-525h-199v525q0 15 4 26q-11 -4 -26 -4h-205z" />
    <glyph glyph-name="daggerdbl" unicode="&#x2021;" horiz-adv-x="705" 
d="M680 351h-206q-15 0 -26 4q4 -11 4 -26v-110q0 -15 -4 -26q11 4 26 4h206v-163h-206q-15 0 -26 4q4 -11 4 -26v-208h-199v208q0 15 4 26q-11 -4 -26 -4h-205v163h205q15 0 26 -4q-4 11 -4 26v110q0 15 4 26q-11 -4 -26 -4h-205v163h205q15 0 26 -4q-4 11 -4 26v208h199
v-208q0 -15 -4 -26q11 4 26 4h206v-163z" />
    <glyph glyph-name="bullet" unicode="&#x2022;" horiz-adv-x="744" 
d="M372 592q91 0 155.5 -64.5t64.5 -155.5t-64.5 -156t-155.5 -65q-92 0 -156.5 64.5t-64.5 156.5q0 91 65 155.5t156 64.5z" />
    <glyph glyph-name="ellipsis" unicode="&#x2026;" horiz-adv-x="791" 
d="M52 0v163h186v-163h-186zM302 0v163h186v-163h-186zM552 0v163h186v-163h-186z" />
    <glyph glyph-name="perthousand" unicode="&#x2030;" horiz-adv-x="1485" 
d="M223 0l441 744h107l-444 -744h-104zM253 752q94 0 156.5 -52t62.5 -131q0 -77 -63.5 -128t-159.5 -51q-95 0 -158.5 51t-63.5 128q0 80 63.5 131.5t162.5 51.5zM255 656q-37 0 -58.5 -21t-21.5 -58q0 -40 21.5 -64t56.5 -24q36 0 57.5 24t21.5 63q0 37 -21 58.5t-56 21.5
zM746 356q94 0 156.5 -52t62.5 -131q0 -77 -63.5 -128t-159.5 -51q-95 0 -158.5 51t-63.5 128q0 80 63.5 131.5t162.5 51.5zM748 260q-37 0 -58.5 -21t-21.5 -58q0 -40 21.5 -64t56.5 -24q36 0 57.5 24t21.5 63q0 37 -21 58.5t-56 21.5zM1242 356q94 0 156.5 -52t62.5 -131
q0 -77 -63.5 -128t-158.5 -51q-96 0 -159.5 51t-63.5 128q0 80 63.5 131.5t162.5 51.5zM1244 260q-37 0 -58.5 -21t-21.5 -58q0 -40 21.5 -64t56.5 -24q36 0 57.5 24t21.5 63q0 37 -21 58.5t-56 21.5z" />
    <glyph glyph-name="guilsinglleft" unicode="&#x2039;" horiz-adv-x="385" 
d="M24 294l177 177h161l-152 -183l144 -186h-157z" />
    <glyph glyph-name="guilsinglright" unicode="&#x203a;" horiz-adv-x="387" 
d="M22 471h165l179 -180l-170 -189h-158l140 182z" />
    <glyph glyph-name="fraction" unicode="&#x2044;" horiz-adv-x="186" 
d="M-180 0l441 744h107l-444 -744h-104z" />
    <glyph glyph-name="Euro" unicode="&#x20ac;" horiz-adv-x="1007" 
d="M619 293h-264q18 -71 73 -113.5t132 -42.5q85 0 135.5 46.5t76.5 148.5l222 -54q-16 -94 -64 -153t-139 -99q-91 -41 -228 -41q-372 0 -453 308h-93v75h83v22q0 30 2 45h-85v74h100q36 90 99 146.5t144 80t188 23.5q335 0 433 -246l-216 -69q-37 75 -65 107
q-53 62 -154 62q-71 0 -114.5 -24t-70.5 -80h258v-74h-277q-2 -22 -2 -33q0 -23 1 -34h278v-75z" />
    <glyph glyph-name="trademark" unicode="&#x2122;" horiz-adv-x="1178" 
d="M9 645v99h461v-99h-143q-15 0 -26 4q4 -11 4 -26v-303h-130v303q0 15 4 26q-11 -4 -26 -4h-144zM550 320v424h204l47 -112q24 -55 46 -119h3q18 56 44 119l46 112h210v-424h-130v154q0 81 6 169l-6 1q-27 -79 -65 -170l-64 -154h-83l-64 148q-34 77 -64 164l-6 -1
q6 -85 6 -163v-148h-130z" />
    <glyph glyph-name="minus" unicode="&#x2212;" horiz-adv-x="744" 
d="M78 452h589v-160h-589v160z" />
    <glyph glyph-name="fi" horiz-adv-x="806" 
d="M758 558v-558h-189v386q0 15 4 26q-11 -4 -26 -4h-222q-15 0 -25 4q3 -11 3 -26v-386h-189v386q0 15 4 26q-11 -4 -26 -4h-84v150h106q0 66 4 94t16 48q16 28 52 40t105 12q57 0 134 -14q1 0 15 -2l-19 -119q-41 10 -71 10q-49 0 -49 -49v-10q0 -6 -4 -14q11 4 26 4h435z
M569 599v142h189v-142h-189z" />
    <glyph glyph-name="fl" horiz-adv-x="809" 
d="M9 408v150h106q0 66 4 94t16 48q16 28 52 40t105 12q58 0 135 -14q1 0 15 -2l-19 -119q-43 10 -72 10q-49 0 -49 -49v-10q0 -6 -4 -14q11 4 26 4h104v-150h-102q-15 0 -25 4q3 -11 3 -26v-386h-189v386q0 15 4 26q-11 -4 -26 -4h-84zM570 0v744h189v-744h-189z" />
    </font>
</defs>
</svg>
